<svg xmlns="http://www.w3.org/2000/svg" width="77.641" height="23.779" viewBox="0 0 77.641 23.779"><defs><style>.a{fill:#ff805d;}</style></defs><g transform="translate(-181 -6242.684)"><g transform="translate(27.372 5348.324)"><path class="a" d="M577.029,1018.895q-.506,2.661-1.014,5.323c-.04.206-.072.414-.119.618-.034.152-.115.364-.005.5a.388.388,0,0,0,.313.105c.2,0,.4,0,.605,0h5.432c.153,0,.361.04.485-.075s.131-.331.161-.489l.254-1.332q.254-1.341.51-2.682c.084-.443.168-.884.253-1.327.041-.216.243-.75-.081-.854a1.252,1.252,0,0,0-.37-.015h-5.187c-.273,0-.548,0-.821,0C577.272,1018.667,577.068,1018.689,577.029,1018.895Z" transform="translate(-364.504 -107.314)"/><path class="a" d="M648.152,902.936q-.062-2.714-.124-5.427c-.011-.455-.021-.91-.031-1.364-.01-.4.018-.827-.031-1.229a.279.279,0,0,0-.24-.265,3.933,3.933,0,0,0-.622,0h-5.408a1.876,1.876,0,0,0-.595.018c-.146.054-.179.223-.2.358q-.5,2.649-1.01,5.3-1.015,5.33-2.031,10.66l-1.021,5.362c-.083.44-.168.88-.251,1.32-.029.154-.119.376-.055.529a.36.36,0,0,0,.365.175h6.053c.138,0,.317.005.4-.127a1.714,1.714,0,0,0,.129-.555c.044-.224.089-.448.133-.672l1.049-5.321q.515-2.612,1.031-5.222c.083-.424.168-.849.252-1.272.042-.212.083-.424.125-.637a1.444,1.444,0,0,1,.153-.58,1.089,1.089,0,0,1,.463-.245l.631-.262.563-.234C648.017,903.183,648.156,903.1,648.152,902.936Z" transform="translate(-416.882 -0.238)"/><path class="a" d="M468.82,963.536c.191,0,.266-.179.3-.339.049-.227.083-.459.128-.687q.187-.947.375-1.894.382-1.927.761-3.855h-6.743a.288.288,0,0,0-.3.239c-.052.2-.079.406-.118.607q-.254,1.329-.507,2.658l-.492,2.581c-.034.177-.148.492.016.636.113.1.321.058.456.058h.705Q466.112,963.534,468.82,963.536Z" transform="translate(-266.363 -53.872)"/><path class="a" d="M481.874,894.688h-6.03c-.159,0-.414-.052-.552.041a.444.444,0,0,0-.145.3l-.123.648q-.256,1.341-.511,2.683l-.5,2.647c-.027.142-.055.293.081.39a.867.867,0,0,0,.507.068h5.393c.2,0,.4,0,.594,0a.375.375,0,0,0,.346-.134,1.158,1.158,0,0,0,.086-.362c.03-.157.06-.314.09-.473l.18-.949.365-1.915.365-1.915a5.349,5.349,0,0,0,.126-.716C482.147,894.826,482.069,894.688,481.874,894.688Z" transform="translate(-276.575 -0.271)"/><path class="a" d="M310.7,909.918a9.5,9.5,0,0,0,4.738-1.115,7.267,7.267,0,0,0,3.009-3.373,9.2,9.2,0,0,0,.642-2.3c.142-.892.335-1.777.507-2.664q.517-2.645,1.032-5.288a.65.65,0,0,0,0-.365c-.067-.167-.253-.142-.4-.142h-6.05c-.163,0-.424-.053-.558.063a.688.688,0,0,0-.15.413l-.131.7c-.085.448-.168.9-.253,1.344q-.5,2.682-1.007,5.363c-.029.153-.027.379-.145.5a.49.49,0,0,1-.359.1c-.208,0-.418.024-.626.008-.186-.014-.414-.081-.385-.312.052-.429.163-.86.243-1.285q.506-2.663,1.014-5.326l.119-.627a5.333,5.333,0,0,0,.105-.582.342.342,0,0,0-.087-.3c-.131-.107-.394-.052-.548-.052H305.35a.276.276,0,0,0-.269.234c-.112.394-.16.814-.236,1.215q-.508,2.673-1.018,5.346t-1.018,5.343q-.254,1.336-.51,2.673l-.254,1.336c-.034.183-.06.37-.108.551a.283.283,0,0,1-.275.246l-5.374,0h-3.3a2.564,2.564,0,0,1-.586-.014.272.272,0,0,1-.232-.243,3.108,3.108,0,0,1,.119-.647l1.054-5.342c.175-.887.354-1.773.523-2.66a7.145,7.145,0,0,0,.212-1.3,9.873,9.873,0,0,0-.1-1.3,6.307,6.307,0,0,0-2.07-4.077,5.767,5.767,0,0,0-2.08-1.087,7.1,7.1,0,0,0-1.227-.243,11.346,11.346,0,0,0-1.2-.027H280.66a.721.721,0,0,0-.41.052c-.141.094-.137.306-.165.455l-.508,2.668q-1.015,5.322-2.027,10.642c-.04.209-.079.419-.12.629a1.927,1.927,0,0,0-.079.548.26.26,0,0,0,.2.243,3.439,3.439,0,0,0,.649.007h5.392a2.026,2.026,0,0,0,.473-.012c.175-.043.219-.2.243-.362.064-.418.159-.832.241-1.246.35-1.77.705-3.537,1.046-5.308.083-.435.165-.871.249-1.307a.288.288,0,0,1,.287-.23c.21-.021.429,0,.64,0,.251,0,.287.232.264.436-.03.254-.105.507-.152.758q-.5,2.647-1.009,5.293-.252,1.327-.506,2.653c-.041.212-.081.424-.122.636-.031.163-.046.324-.231.37a2.154,2.154,0,0,1-.513.018H268.775c-.085,0-.348-.057-.373.056-.046.217-.083.437-.126.656q-.508,2.663-1.015,5.326c-.047.246-.1.492-.141.74h39.967c.163,0,.384.044.5-.105a1.088,1.088,0,0,0,.128-.47l.123-.685c.079-.444.16-.89.239-1.334.228-1.27.439-2.542.679-3.809.115-.606.22-1.219.357-1.822.068-.3.381-.246.622-.246Z" transform="translate(-97.981 -0.257)"/><path class="a" d="M170.857,902.889c.072-.381.157-.764.21-1.149.03-.213.079-.522.347-.544.205-.016.417,0,.622,0a.563.563,0,0,1,.383.078c.126.114.077.3.042.441-.052.218-.086.442-.129.662q-.508,2.667-1.015,5.334c-.085.443-.169.887-.253,1.33a.86.86,0,0,0-.037.454c.066.172.264.176.42.171.883-.031,1.773,0,2.657,0h3.362c.157,0,.339.03.431-.129a1.462,1.462,0,0,0,.115-.447q.068-.344.137-.69,1.05-5.32,2.064-10.645.254-1.33.507-2.661a1.043,1.043,0,0,0,.051-.5c-.062-.176-.258-.184-.415-.179-.418.013-.839,0-1.257,0q-2.69,0-5.378,0c-1.8,0-3.6,0-5.4,0h-2.006a3.2,3.2,0,0,0-.648.011.323.323,0,0,0-.25.3c-.041.217-.083.435-.124.652l-.25,1.311-2.03,10.655q-.254,1.33-.507,2.662c-.041.212-.081.425-.122.637l-.057.3a.811.811,0,0,1-.075.291c-.087.133-.256.127-.4.127-.2,0-.4,0-.6,0a.383.383,0,0,1-.354-.127c-.107-.165.007-.44.042-.616.087-.445.176-.89.264-1.335l.525-2.66c.7-3.557,1.38-7.12,2.06-10.683.055-.284.108-.57.163-.854.026-.138.053-.277.079-.416a1.339,1.339,0,0,1,.048-.306l-5.392.041-1.312.01a2.575,2.575,0,0,0-.482.012c-.191.041-.241.234-.3.4-.277.83-.612,1.645-.92,2.464s-.622,1.662-.933,2.494c-.064.169.055.292.174.395l.515.44c.122.1.329.22.364.387a1.616,1.616,0,0,1-.079.579q-.508,2.667-1.015,5.334-.254,1.33-.507,2.66c-.083.441-.168.882-.251,1.323-.081.426-.186.85-.253,1.279a4.747,4.747,0,0,0,1.369,4.269,7.271,7.271,0,0,0,4.264,1.6c.8.075,1.6.083,2.4.085q1.357,0,2.713,0h2.728a2.508,2.508,0,0,0,.517-.015c.191-.041.212-.2.245-.368.086-.44.174-.879.26-1.319l1.054-5.341.812-4.116q.2-1.035.409-2.069c.13-.668.287-1.338.395-2.013C170.917,902.57,170.8,903.224,170.857,902.889Z" transform="translate(0 0)"/></g></g></svg>