<svg xmlns="http://www.w3.org/2000/svg" width="41.798" height="36.001" viewBox="0 0 41.798 36.001"><defs><style>.a{fill:#b2e7f1;}.b{fill:#ef7c85;}.c{fill:#a7adf1;}.d{fill:#e7effa;}.e{fill:#9762e2;}.f{fill:#fef2a8;}.g{fill:#e068bd;}.h{fill:#eeb6a8;}</style></defs><g transform="translate(-3.936 -37.813)"><g transform="translate(3.936 37.813)"><path class="a" d="M103.067,408.237h30.78v6.283h-30.78Z" transform="translate(-94.483 -381.22)"/><path class="b" d="M88.7,385.408H59.191a1.649,1.649,0,0,1,0-3.3H88.7a2.7,2.7,0,0,0,0-5.4H59.191a1.649,1.649,0,0,1,0-3.3H88.7a6,6,0,0,1,0,12Z" transform="translate(-52.9 -349.406)"/><g transform="translate(35.798 30.001)"><path class="c" d="M198.941,406.64a6.007,6.007,0,0,0,6-6Z" transform="translate(-198.941 -400.64)"/></g><path class="b" d="M94.7,379.409a6.007,6.007,0,0,0-6-6H83.372a4.9,4.9,0,0,1,4.826,3.3h.5a2.7,2.7,0,0,1,0,5.4H59.191a1.649,1.649,0,1,0,0,3.3H88.7a6.007,6.007,0,0,0,6-6Z" transform="translate(-52.9 -349.408)"/><path class="d" d="M103.067,269.646h30.78v6.283h-30.78Z" transform="translate(-94.483 -254.63)"/><path class="e" d="M88.7,246.816H59.191a1.649,1.649,0,0,1,0-3.3H88.7a2.7,2.7,0,0,0,0-5.4H59.191a1.649,1.649,0,1,1,0-3.3H88.7a6,6,0,0,1,0,12Z" transform="translate(-52.9 -222.815)"/><path class="e" d="M88.7,234.817H83.372a4.9,4.9,0,0,1,4.826,3.3h.5a2.7,2.7,0,0,1,0,5.4H59.191a1.649,1.649,0,1,0,0,3.3H88.7a6,6,0,1,0,0-12Z" transform="translate(-52.9 -222.816)"/><path class="f" d="M49.461,131.054H80.24v6.283H49.461Z" transform="translate(-45.519 -128.038)"/><path class="g" d="M35.092,108.225H5.585a1.649,1.649,0,1,1,0-3.3H35.092a2.7,2.7,0,0,0,0-5.4H5.585a1.649,1.649,0,0,1,0-3.3H35.092a6,6,0,0,1,0,12Z" transform="translate(-3.936 -96.224)"/><g transform="translate(31.156 6)"><path class="h" d="M145.335,129.457a6.007,6.007,0,0,0,6-6Z" transform="translate(-145.335 -123.457)"/></g><path class="g" d="M35.092,96.225H29.766a4.9,4.9,0,0,1,4.826,3.3h.5a2.7,2.7,0,0,1,0,5.4H5.585a1.649,1.649,0,1,0,0,3.3H35.092a6,6,0,1,0,0-12Z" transform="translate(-3.936 -96.225)"/></g></g></svg>