<?xml version="1.0" standalone="no"?>
<!DOCTYPE svg PUBLIC "-//W3C//DTD SVG 20010904//EN"
 "http://www.w3.org/TR/2001/REC-SVG-20010904/DTD/svg10.dtd">
<svg version="1.0" xmlns="http://www.w3.org/2000/svg"
 width="672.000000pt" height="672.000000pt" viewBox="0 0 672.000000 672.000000"
 preserveAspectRatio="xMidYMid meet">
<metadata>
Created by potrace 1.14, written by Peter Selinger 2001-2017
</metadata>
<g transform="translate(0.000000,672.000000) scale(0.100000,-0.100000)"
fill="#000000" stroke="none">
<path d="M208 6244 c-4 -3 -12 -7 -20 -8 -36 -6 -92 -43 -124 -81 -85 -105
-83 -247 5 -348 44 -49 132 -90 191 -88 8 0 22 1 30 1 25 1 233 1 260 -1 14 0
38 -1 54 -2 l30 -2 -1 -410 c-1 -225 -2 -420 -2 -432 -1 -21 -3 -21 -208 -21
-185 0 -213 -2 -253 -20 -134 -58 -196 -187 -156 -323 29 -103 111 -172 216
-185 71 -9 150 -10 150 -2 0 4 6 5 14 2 22 -9 136 -10 136 -2 0 4 7 5 15 2 24
-9 155 -10 155 -1 0 5 5 5 11 1 16 -10 69 -11 97 -2 13 5 21 5 18 0 -5 -8 77
-7 91 1 5 3 15 1 23 -5 12 -8 12 -9 -2 -4 -10 3 -18 2 -18 -3 0 -5 -15 -16
-34 -25 -48 -23 -112 -101 -127 -155 -16 -56 -14 -138 3 -159 7 -8 12 -18 12
-21 -7 -31 62 -104 126 -134 58 -27 29 -24 270 -26 l210 -1 -2 -432 -3 -433
-156 -1 c-86 -1 -164 -4 -173 -7 -8 -3 -18 -2 -20 2 -9 14 -109 -11 -150 -37
-89 -56 -131 -133 -127 -239 3 -102 67 -194 157 -229 49 -19 55 -29 22 -39
-142 -43 -222 -223 -159 -356 30 -62 84 -116 136 -136 57 -21 89 -24 282 -24
l193 0 0 -434 0 -434 -222 -3 c-248 -3 -261 -6 -331 -74 -83 -81 -104 -203
-52 -306 31 -62 63 -92 131 -124 l51 -24 2474 3 c1361 1 2490 6 2509 11 128
29 267 90 375 164 87 60 217 200 267 287 48 82 107 228 114 280 1 11 3 20 4
20 14 0 22 296 9 355 -5 25 -12 56 -14 70 -43 205 -207 444 -392 571 -86 60
-242 128 -330 145 -13 2 -35 7 -50 10 -16 3 -36 6 -45 6 -10 -1 -18 3 -18 7 0
4 6 8 13 8 12 0 62 9 102 17 48 10 177 57 221 82 144 78 277 197 361 321 66
97 132 255 149 358 11 65 13 275 4 326 -6 30 -13 67 -15 82 -6 30 -44 136 -71
195 -74 160 -240 334 -404 424 -124 68 -325 123 -430 118 -19 -1 -39 -2 -45
-1 -58 4 -354 3 -363 -2 -6 -4 -13 -4 -15 1 -5 7 -19 7 -107 2 -51 -3 -124 -1
-119 4 2 2 20 6 39 9 205 33 432 167 575 339 75 90 179 286 174 328 0 3 4 17
10 33 22 58 33 137 34 242 0 82 -5 136 -18 205 -8 42 -47 164 -57 174 -4 6 -8
15 -8 22 0 12 -77 153 -89 164 -4 3 -18 21 -32 40 -27 36 -111 123 -146 150
-135 108 -258 166 -443 208 -33 8 -4965 14 -4972 6z"/>
</g>
</svg>
