<svg xmlns="http://www.w3.org/2000/svg" xmlns:xlink="http://www.w3.org/1999/xlink" width="104" height="92" viewBox="0 0 104 92"><defs><style>.a{fill:url(#a);}.b{fill:#fff;}</style><linearGradient id="a" x1="0.5" x2="0.5" y2="1" gradientUnits="objectBoundingBox"><stop offset="0" stop-color="#61c589"/><stop offset="1" stop-color="#82e3a9"/></linearGradient></defs><g transform="translate(-304 -657)"><rect class="a" width="104" height="92" rx="27" transform="translate(304 657)"/><path class="b" d="M43.819,0H1.781A1.781,1.781,0,0,0,0,1.781V29.8a1.781,1.781,0,0,0,1.781,1.781h19a9.3,9.3,0,0,0,1.111,1.544V43.817a1.783,1.783,0,0,0,2.922,1.368l4.114-3.429,4.114,3.429a1.783,1.783,0,0,0,2.922-1.368V33.13a9.3,9.3,0,0,0,1.111-1.544h6.741A1.781,1.781,0,0,0,45.6,29.8V1.781A1.781,1.781,0,0,0,43.819,0ZM32.4,40.014,30.071,38.07a1.78,1.78,0,0,0-2.28,0l-2.333,1.944V35.638a9.438,9.438,0,0,0,6.947,0v4.376ZM28.93,32.738a5.83,5.83,0,1,1,5.83-5.831,5.829,5.829,0,0,1-5.83,5.831Zm13.107-4.714h-3.78a9.393,9.393,0,1,0-18.654,0H3.563V3.562H42.038ZM7.619,10.538A1.781,1.781,0,0,1,9.4,8.757H36.2a1.781,1.781,0,0,1,0,3.563H9.4A1.781,1.781,0,0,1,7.619,10.538Zm0,7.006A1.781,1.781,0,0,1,9.4,15.763h9.458a1.781,1.781,0,1,1,0,3.563H9.4a1.781,1.781,0,0,1-1.781-1.781Zm0,0" transform="translate(333 680)"/></g></svg>