<svg xmlns="http://www.w3.org/2000/svg" xmlns:xlink="http://www.w3.org/1999/xlink" width="104" height="92" viewBox="0 0 104 92"><defs><style>.a{fill:url(#a);}.b{fill:#fff;}</style><linearGradient id="a" x1="0.5" x2="0.5" y2="1" gradientUnits="objectBoundingBox"><stop offset="0" stop-color="#ffcc7b"/><stop offset="1" stop-color="#ffd696"/></linearGradient></defs><g transform="translate(-888 -657)"><rect class="a" width="104" height="92" rx="27" transform="translate(888 657)"/><path class="b" d="M28.038,3.2H24.079V1.627A1.627,1.627,0,0,0,22.452,0H9.653A1.627,1.627,0,0,0,8.026,1.627V3.2H4.067A4.072,4.072,0,0,0,0,7.272v30.31a4.072,4.072,0,0,0,4.067,4.067H28.038a4.072,4.072,0,0,0,4.067-4.067V7.272A4.072,4.072,0,0,0,28.038,3.2Zm-7.213.049V6.41H11.279V3.254Zm8.027,34.328a.814.814,0,0,1-.813.813H4.067a.814.814,0,0,1-.813-.813V7.272a.814.814,0,0,1,.813-.813H8.026V8.037A1.627,1.627,0,0,0,9.653,9.664h12.8a1.627,1.627,0,0,0,1.627-1.627V6.459h3.959a.815.815,0,0,1,.813.813ZM23.6,19a1.627,1.627,0,0,1,0,2.3l-8.55,8.55a1.627,1.627,0,0,1-2.3,0L8.5,25.6a1.627,1.627,0,0,1,2.3-2.3l3.1,3.1L21.3,19a1.627,1.627,0,0,1,2.3,0Zm0,0" transform="translate(924.045 681.963)"/></g></svg>