<svg xmlns="http://www.w3.org/2000/svg" xmlns:xlink="http://www.w3.org/1999/xlink" width="104" height="92" viewBox="0 0 104 92"><defs><style>.a{fill:url(#a);}.b{fill:#fff;}</style><linearGradient id="a" x1="0.5" x2="0.5" y2="1" gradientUnits="objectBoundingBox"><stop offset="0" stop-color="#40cde8"/><stop offset="1" stop-color="#7de0f3"/></linearGradient></defs><g transform="translate(-607 -657)"><rect class="a" width="104" height="92" rx="27" transform="translate(607 657)"/><path class="b" d="M45.033,0H11A1.831,1.831,0,0,0,9.169,1.831V14.855A8.043,8.043,0,0,0,5.5,28.556,11.006,11.006,0,0,0,0,38.077a1.83,1.83,0,0,0,1.831,1.831H20.169A1.831,1.831,0,0,0,22,38.077a10.94,10.94,0,0,0-2.2-6.6H45.034a1.83,1.83,0,0,0,1.831-1.831V1.831A1.83,1.83,0,0,0,45.034,0ZM11,18.306a4.386,4.386,0,1,1-4.386,4.386A4.39,4.39,0,0,1,11,18.306ZM3.892,36.246a7.34,7.34,0,0,1,14.215,0ZM43.2,27.818h-26A8.043,8.043,0,0,0,12.83,14.855V3.661H43.2Zm0,0" transform="translate(636 683)"/></g></svg>