<svg aria-hidden="true" style="position: absolute; width: 0; height: 0; overflow: hidden;" version="1.1" xmlns="http://www.w3.org/2000/svg" xmlns:xlink="http://www.w3.org/1999/xlink">
<defs>
<symbol id="icon-arrow-drop-down-line-1" viewBox="0 0 32 32">
<path d="M16.006 20l-5.663-5.657 1.887-1.885 3.777 3.77 3.771-3.772 1.887 1.885z"></path>
</symbol>
<symbol id="icon-book-3-fill" viewBox="0 0 32 32">
<path fill="#452b4e" style="fill: var(--color1, #452b4e)" d="M28 5.335h-18.667c-1.442 0.040-2.596 1.218-2.596 2.666s1.154 2.627 2.593 2.666l0.004 0h18.667v17.333c0 0.736-0.597 1.333-1.333 1.333h-17.335c-2.945 0-5.333-2.388-5.333-5.333v-16c0-2.945 2.388-5.333 5.333-5.333v0h17.333c0.736 0 1.333 0.597 1.333 1.333v0zM26.667 9.335h-17.335c-0.737 0-1.334-0.597-1.334-1.334s0.597-1.334 1.334-1.334h17.333z"></path>
</symbol>
<symbol id="icon-category" viewBox="0 0 32 32">
<path d="M9.333 15.333c-3.314 0-6-2.686-6-6s2.686-6 6-6c3.314 0 6 2.686 6 6v0c0 3.314-2.686 6-6 6v0zM9.333 28.667c-3.314 0-6-2.686-6-6s2.686-6 6-6c3.314 0 6 2.686 6 6v0c0 3.314-2.686 6-6 6v0zM22.667 15.333c-3.314 0-6-2.686-6-6s2.686-6 6-6c3.314 0 6 2.686 6 6v0c0 3.314-2.686 6-6 6v0zM22.667 28.667c-3.314 0-6-2.686-6-6s2.686-6 6-6c3.314 0 6 2.686 6 6v0c0 3.314-2.686 6-6 6v0z"></path>
</symbol>
<symbol id="icon-certificate" viewBox="0 0 32 32">
<path fill="#000" style="fill: var(--color2, #000)" d="M8.308 1.846h15.385c4.588 0 8.308 3.719 8.308 8.308v11.692c0 4.588-3.719 8.308-8.308 8.308h-15.385c-4.588 0-8.308-3.719-8.308-8.308v-11.692c0-4.588 3.719-8.308 8.308-8.308z"></path>
<path fill="#fff" style="fill: var(--color3, #fff)" d="M22.406 8.923h-12.935c-0.303 0-0.548 0.245-0.548 0.548v0 8.621c0 0.303 0.245 0.548 0.548 0.548v0h5.846c0.104 0.18 0.217 0.335 0.344 0.478l-0.002-0.003v3.29c0.001 0.302 0.246 0.547 0.549 0.547 0.134 0 0.256-0.048 0.351-0.127l-0.001 0.001 1.266-1.055 1.266 1.055c0.094 0.079 0.217 0.127 0.35 0.127 0.303 0 0.548-0.245 0.549-0.547v-3.288c0.125-0.14 0.238-0.295 0.335-0.461l0.007-0.014h2.074c0 0 0.001 0 0.001 0 0.303 0 0.548-0.245 0.548-0.548 0-0.001 0-0.001 0-0.002v0-8.621c0-0.303-0.245-0.548-0.548-0.548v0zM18.892 21.235l-0.717-0.598c-0.094-0.079-0.217-0.127-0.351-0.127s-0.256 0.048-0.352 0.128l0.001-0.001-0.718 0.598v-1.346c0.317 0.129 0.684 0.204 1.069 0.204s0.752-0.075 1.088-0.211l-0.019 0.007v1.346zM17.825 18.996c-0.991 0-1.794-0.803-1.794-1.794s0.803-1.794 1.794-1.794c0.991 0 1.794 0.803 1.794 1.794v0c0 0 0 0 0 0.001 0 0.991-0.803 1.794-1.794 1.794-0 0-0 0-0 0h0zM21.858 17.546h-1.163c0.013-0.103 0.020-0.221 0.020-0.342 0-1.596-1.294-2.89-2.89-2.89s-2.89 1.294-2.89 2.89c0 0.121 0.007 0.239 0.022 0.356l-0.001-0.014h-4.935v-7.527h11.838zM11.267 12.166c0-0.303 0.245-0.548 0.548-0.548h8.246c0.303 0 0.548 0.245 0.548 0.548s-0.245 0.548-0.548 0.548h-8.246c-0.303 0-0.548-0.245-0.548-0.548 0-0 0-0 0-0v0zM11.267 14.321c0-0.303 0.245-0.548 0.548-0.548h2.91c0.303 0 0.548 0.245 0.548 0.548s-0.245 0.548-0.548 0.548h-2.91c-0.303 0-0.548-0.245-0.548-0.548v0z"></path>
</symbol>
<symbol id="icon-cup" viewBox="0 0 32 32">
<path fill="#9e9e9e" style="fill: var(--color4, #9e9e9e)" d="M28.194 1.182h-4.114v-0.139c0 0 0 0 0-0 0-0.576-0.467-1.044-1.044-1.044-0.002 0-0.004 0-0.006 0h-13.773c-0.576 0-1.044 0.467-1.044 1.044v0 0.139h-4.114c-0.576 0-1.044 0.467-1.044 1.044v0 5.698c0 3.933 2.133 6.127 5.998 6.205 0.373 0.928 0.852 1.728 1.436 2.439l-0.013-0.016c0.769 0.941 1.742 1.686 2.854 2.172l0.049 0.019v5.353h-4.114c-0.576 0-1.044 0.467-1.044 1.044v0 5.164c0 0.576 0.467 1.044 1.044 1.044h13.774c0.576 0 1.044-0.467 1.044-1.044v0-5.161c0-0.576-0.467-1.044-1.044-1.044v0h-4.114v-5.356c1.163-0.505 2.139-1.251 2.898-2.179l0.011-0.014c0.571-0.695 1.050-1.495 1.401-2.361l0.022-0.062c3.869-0.076 5.998-2.272 5.998-6.205v-5.696c0-0 0-0 0-0 0-0.576-0.467-1.044-1.044-1.044-0.005 0-0.011 0-0.016 0h0.001zM5.134 7.924v-4.654h3.078v6.382c0 0.004 0 0.009 0 0.014 0 0.829 0.079 1.64 0.229 2.425l-0.013-0.080c-2.275-0.238-3.294-1.524-3.294-4.087zM21.986 26.19v3.078h-11.686v-3.078zM16.82 24.104h-1.356v-4.835c0.224 0.021 0.457 0.034 0.678 0.034s0.457-0.014 0.678-0.034zM16.142 17.219c-3.386 0-5.844-3.182-5.844-7.564v-7.567h11.688v7.564c0 4.382-2.458 7.567-5.844 7.567zM27.15 7.924c0 2.557-1.024 3.843-3.294 4.081 0.138-0.705 0.216-1.516 0.216-2.345 0-0.005 0-0.010 0-0.015v0.001-6.376h3.078z"></path>
</symbol>
<symbol id="icon-exam" viewBox="0 0 32 32">
<path fill="#000" style="fill: var(--color2, #000)" d="M8.308 1.846h15.385c4.588 0 8.308 3.719 8.308 8.308v11.692c0 4.588-3.719 8.308-8.308 8.308h-15.385c-4.588 0-8.308-3.719-8.308-8.308v-11.692c0-4.588 3.719-8.308 8.308-8.308z"></path>
<path fill="#fff" style="fill: var(--color3, #fff)" d="M19.718 10.512h-1.218v-0.484c0-0.276-0.224-0.501-0.501-0.501v0h-3.938c-0.276 0-0.501 0.224-0.501 0.501v0.484h-1.218c-0.691 0.001-1.251 0.562-1.251 1.253 0 0 0 0 0 0v0 9.326c0.001 0.691 0.561 1.25 1.251 1.251h7.376c0.691-0.001 1.25-0.561 1.251-1.251v-9.326c0-0.691-0.56-1.252-1.251-1.253h-0zM17.498 10.527v0.973h-2.937v-0.971zM19.968 21.089c-0 0.138-0.112 0.25-0.25 0.25h-7.376c-0.138-0-0.25-0.112-0.25-0.25v-9.325c0-0.138 0.112-0.25 0.25-0.25h1.218v0.486c0 0.276 0.224 0.501 0.501 0.501v0h3.938c0.276 0 0.501-0.224 0.501-0.501v0-0.486h1.218c0.138 0 0.25 0.112 0.25 0.25v0zM18.352 15.373c0.090 0.091 0.146 0.216 0.146 0.354s-0.056 0.263-0.146 0.354l-2.631 2.631c-0.091 0.090-0.216 0.146-0.354 0.146s-0.263-0.056-0.354-0.146l-1.308-1.308c-0.085-0.089-0.137-0.211-0.137-0.344 0-0.276 0.224-0.501 0.501-0.501 0.133 0 0.254 0.052 0.344 0.137l0.954 0.954 2.277-2.277c0.091-0.091 0.216-0.146 0.354-0.146s0.263 0.056 0.354 0.146v0z"></path>
</symbol>
<symbol id="icon-heart-fill" viewBox="0 0 32 32">
<path fill="#452b4e" style="fill: var(--color1, #452b4e)" d="M16.002 6.039c1.41-1.269 3.285-2.045 5.341-2.045 4.417 0 7.998 3.581 7.998 7.998 0 2.052-0.773 3.923-2.043 5.339l0.007-0.007-11.307 11.323-11.304-11.323c-1.26-1.408-2.031-3.277-2.031-5.326 0-4.418 3.582-8 8-8 2.054 0 3.928 0.774 5.345 2.047l-0.007-0.007z"></path>
</symbol>
<symbol id="icon-multimedia" viewBox="0 0 32 32">
<path fill="#f57000" style="fill: var(--color5, #f57000)" d="M29.106 9.044v0c-0.797 0-1.444-0.646-1.444-1.444v0 0c0-1.596-1.293-2.889-2.889-2.889v0h-7.22c-1.595 0-2.889 1.293-2.889 2.889v0 0c0 0.797-0.646 1.444-1.444 1.444v0h-7.22c-1.596 0-2.889 1.293-2.889 2.889v0 0 17.33c0 1.596 1.293 2.889 2.889 2.889v0h23.107c1.596 0 2.889-1.293 2.889-2.889v0 0-17.33c0-1.595-1.293-2.889-2.889-2.889v0z"></path>
<path fill="#f55f00" style="fill: var(--color6, #f55f00)" d="M31.272 11.932v0c0.399 0 0.722 0.323 0.722 0.722v0 15.886c0 0.399-0.323 0.722-0.722 0.722v0 0c-0.399 0-0.722-0.323-0.722-0.722v0-15.885c0-0 0-0 0-0 0-0.399 0.323-0.722 0.722-0.722v0z"></path>
<path fill="#5628b4" style="fill: var(--color7, #5628b4)" d="M17.556 8.889c0 4.909-3.88 8.889-8.667 8.889s-8.667-3.98-8.667-8.889c0-4.909 3.88-8.889 8.667-8.889s8.667 3.98 8.667 8.889z"></path>
<path fill="#4513ad" style="fill: var(--color8, #4513ad)" d="M14.664 9.043c0 3.19-2.586 5.776-5.776 5.776s-5.776-2.586-5.776-5.776c0-3.19 2.586-5.776 5.776-5.776s5.776 2.586 5.776 5.776z"></path>
<path fill="#3802a7" style="fill: var(--color9, #3802a7)" d="M13.111 9.111c0 2.332-1.99 4.222-4.444 4.222s-4.444-1.89-4.444-4.222c0-2.332 1.99-4.222 4.444-4.222s4.444 1.89 4.444 4.222z"></path>
<path fill="#9c81d3" style="fill: var(--color10, #9c81d3)" d="M8.888 0.379c-4.786 0-8.667 3.88-8.667 8.667s3.88 8.667 8.667 8.667c4.786 0 8.667-3.88 8.667-8.667 0-0.001 0-0.002 0-0.004v0c-0.002-4.785-3.881-8.663-8.667-8.663v0zM7.356 2.406c0.392-0.392 0.934-0.634 1.532-0.634 1.196 0 2.166 0.97 2.166 2.166s-0.97 2.166-2.166 2.166c-0.598 0-1.14-0.242-1.532-0.634v0c-0.392-0.392-0.635-0.934-0.635-1.532s0.242-1.14 0.635-1.532v0zM2.101 8.449c-0.149-0.286-0.236-0.624-0.236-0.983 0-1.196 0.97-2.166 2.166-2.166s2.166 0.97 2.166 2.166c0 0.837-0.475 1.564-1.171 1.924l-0.012 0.006c-0.286 0.149-0.625 0.236-0.984 0.236-0.837 0-1.564-0.475-1.924-1.171l-0.006-0.012zM6.225 15.314c-0.102 0.017-0.219 0.027-0.339 0.027-1.196 0-2.166-0.97-2.166-2.166s0.97-2.166 2.166-2.166c1.077 0 1.97 0.785 2.138 1.815l0.002 0.012c0.017 0.102 0.027 0.219 0.027 0.339 0 1.077-0.785 1.97-1.815 2.138l-0.013 0.002zM7.443 9.042c0.001-0.797 0.647-1.442 1.444-1.442s1.444 0.646 1.444 1.444c0 0.797-0.646 1.444-1.444 1.444h-0c-0 0-0 0-0 0-0.797 0-1.444-0.646-1.444-1.444 0-0.001 0-0.002 0-0.002v0zM14.028 13.513c-0.17 1.042-1.063 1.827-2.14 1.827-1.196 0-2.166-0.97-2.166-2.166s0.97-2.166 2.166-2.166c0.12 0 0.237 0.010 0.351 0.028l-0.012-0.002c1.042 0.169 1.828 1.063 1.828 2.14 0 0.12-0.010 0.237-0.028 0.352l0.002-0.012zM12.76 9.397c-0.707-0.366-1.183-1.093-1.183-1.93 0-1.196 0.97-2.166 2.166-2.166s2.166 0.97 2.166 2.166c0 0.359-0.087 0.697-0.242 0.995l0.006-0.012c-0.366 0.708-1.093 1.183-1.93 1.183-0.359 0-0.698-0.087-0.996-0.242l0.012 0.006z"></path>
<path fill="#7e5ac6" style="fill: var(--color11, #7e5ac6)" d="M6.76 0.653c-0.107 0.027-0.215 0.052-0.32 0.082-0.585 0.189-1 0.728-1 1.364 0 0.766 0.602 1.391 1.358 1.429l0.003 0c0.071-0.439 0.27-0.824 0.555-1.124l-0.001 0.001c0.392-0.392 0.934-0.635 1.532-0.635s1.14 0.242 1.532 0.635v0c0.323 0.335 0.537 0.776 0.584 1.266l0.001 0.009c0.917 0.375 1.687 0.946 2.285 1.666l0.008 0.009c0.138-0.031 0.296-0.049 0.458-0.049 1.191 0 2.157 0.966 2.157 2.157 0 0.834-0.474 1.558-1.167 1.917l-0.012 0.006c0.15 0.632 0.708 1.096 1.374 1.101h0.001c0.797 0 1.444-0.646 1.444-1.444v0 0c0-4.786-3.88-8.667-8.667-8.667v0 0c-0.245 0-0.485 0.017-0.725 0.037-0.522 0.046-0.999 0.131-1.461 0.253l0.060-0.013z"></path>
<path fill="#7e5ac6" style="fill: var(--color11, #7e5ac6)" d="M11.88 17.166c0.094-0.035 0.19-0.065 0.282-0.103 0.346-0.14 0.627-0.274 0.899-0.423l-0.045 0.023q0.368-0.2 0.711-0.433v0c0.097-0.066 0.187-0.141 0.281-0.21 0.432-0.319 0.813-0.657 1.162-1.025l0.004-0.004c0.071-0.075 0.139-0.151 0.207-0.228 0.21-0.245 0.337-0.566 0.337-0.917 0-0.782-0.634-1.416-1.416-1.416-0.134 0-0.264 0.019-0.388 0.054l0.010-0.002c0.076 0.211 0.12 0.455 0.12 0.709 0 1.189-0.964 2.153-2.153 2.153-0.634 0-1.204-0.274-1.598-0.71l-0.002-0.002c-0.432 0.121-0.928 0.191-1.44 0.191-0.494 0-0.974-0.065-1.43-0.186l0.039 0.009c-0.396 0.434-0.963 0.705-1.594 0.705-1.19 0-2.155-0.965-2.155-2.155 0-0.392 0.105-0.76 0.288-1.077l-0.006 0.010-0.007-0.009-0.016-0.024-0.012-0.021-0.028-0.044c-0.26-0.419-0.717-0.694-1.239-0.694-0.277 0-0.536 0.078-0.757 0.212l0.006-0.004c-0.419 0.251-0.694 0.702-0.694 1.218 0 0.251 0.065 0.486 0.179 0.69l-0.004-0.007c0.058 0.098 0.116 0.196 0.178 0.292 0.217 0.335 0.431 0.624 0.661 0.898l-0.011-0.013c0.041 0.049 0.089 0.094 0.129 0.142 0.215 0.242 0.434 0.464 0.664 0.674l0.007 0.006c0.063 0.057 0.124 0.116 0.188 0.171 0.26 0.225 0.545 0.444 0.844 0.644l0.031 0.020c0.055 0.036 0.114 0.068 0.17 0.103 0.23 0.147 0.505 0.302 0.789 0.441l0.051 0.023c0.127 0.061 0.251 0.129 0.382 0.184v0c0.462 0.202 1.006 0.376 1.57 0.495l0.056 0.010c0.525 0.112 1.128 0.176 1.746 0.176s1.221-0.064 1.802-0.186l-0.057 0.010c0.211-0.044 0.416-0.101 0.622-0.16 0.212-0.060 0.42-0.131 0.626-0.206z"></path>
<path fill="#c0afe3" style="fill: var(--color12, #c0afe3)" d="M3.071 13.321l0.019 0.027 0.050 0.067 0.002 0.003 0.007 0.008c0.132 0.17 0.337 0.279 0.567 0.279 0 0 0 0 0.001 0h-0c0.026 0 0.048-0.022 0.074-0.025-0.014-0.056-0.035-0.108-0.044-0.167-0.016-0.099-0.025-0.212-0.025-0.328 0-0.396 0.107-0.767 0.295-1.086l-0.005 0.010c-0.489-0.762-0.804-1.678-0.869-2.662l-0.001-0.017c-0.752-0.334-1.267-1.074-1.267-1.935 0-0.039 0.001-0.077 0.003-0.115l-0 0.005c-0.128 0.496-0.204 1.067-0.21 1.655l-0 0.004v0.020c0 0.002 0 0.005 0 0.007v0.012c0 0.003 0 0.005 0 0.008v0.018c0 0.002 0 0.005 0 0.007v0c0 0.003 0 0.005 0 0.008v0c0 0.003 0 0.005 0 0.008v0c0 0.003 0 0.005 0 0.008v0c0 0.003 0 0.005 0 0.008v0c0 0.003 0 0.005 0 0.008v0c0 0.003 0 0.005 0 0.008v0c0 0.002 0 0.005 0 0.007v0c0 0.003 0 0.005 0 0.008v0.002c0 0.003 0 0.005 0 0.008v0c0 0.002 0 0.005 0 0.007v0c0 0.003 0 0.005 0 0.008v0c0 0.003 0 0.005 0 0.008v0c0 0.003 0 0.005 0 0.008s0 0.005 0 0.008v0.018c0 0.002 0 0.004 0 0.007v0.020c0 0.003 0 0.005 0 0.008v0c0 0.003 0 0.005 0 0.008v0.026c0 0.002 0 0.005 0 0.008s0 0 0 0v0.008c0 0.002 0 0.004 0 0.007v0c0 0.003 0 0.005 0 0.008s0 0.005 0 0.007v0c0 0.003 0 0.005 0 0.008v0c0 0.003 0 0.005 0 0.008v0c0 0.002 0 0.005 0 0.007v0c0 0.003 0 0.005 0 0.008s0 0.005 0 0.007v0c0 0.003 0 0.005 0 0.008s0 0 0 0.002 0 0.005 0 0.008v0c0 0.002 0 0.004 0 0.007v0c0 0.002 0 0.005 0 0.008v0s0 0.004 0 0.006v0c0 0.002 0 0.005 0 0.007v0.003c0 0.002 0 0.004 0 0.007v0s0 0.004 0 0.006c-0 0-0 0.001-0 0.001s0 0.001 0 0.001v-0c0 0.003 0 0.005 0 0.008s0 0.004 0 0.006 0 0.005 0 0.008 0 0 0 0.003 0 0.004 0 0.006v0.002s0 0.004 0 0.006 0 0 0 0.003v0.010s0 0.004 0 0.005v0.003c0 0.002 0 0.005 0 0.007v0.003s0 0.004 0 0.006v0.009c-0 0-0 0.001-0 0.001s0 0.001 0 0.001v-0 0.007s0 0 0 0.002 0 0.004 0 0.006v0.012s0 0.004 0 0.005 0 0.002 0 0.004 0 0.004 0 0.006v0.003c0 0.002 0 0.005 0 0.007-0 0-0 0.001-0 0.001s0 0.001 0 0.001v-0s0 0.004 0 0.006v0.003c0 0.002 0 0.005 0 0.007s0 0 0 0.003v0.008q0 0.004 0 0.007v0.003c0 0.002 0 0.004 0 0.007v0.002s0 0.004 0 0.005v0.031c0 0.002 0 0.004 0 0.007v0.039s0 0.004 0 0.006v0.008s0 0 0 0.003v0.010s0 0.004 0 0.005v0.070s0 0.004 0 0.006 0 0 0 0.003 0 0.004 0 0.006 0 0 0 0.003 0 0.004 0 0.007c0 0 0 0.001 0 0.002s-0 0.001-0 0.002v-0 0.018s0 0.004 0 0.005 0 0.002 0 0.004v0.006s0 0.002 0 0.004v0.006s0 0.003 0 0.004v0.004s0 0.002 0 0.004v0.006s0 0.002 0 0.004v0.004s0 0.004 0 0.005 0 0.003 0 0.005v0.004s0 0.003 0 0.005v0.009s0 0.002 0 0.004v0.006s0 0 0 0.003 0 0.003 0 0.005 0 0 0 0.003v0.020s0 0.003 0 0.004v0.013s0 0.003 0 0.004c-0 0.001-0 0.001-0 0.002s0 0.001 0 0.002v-0 0.010s0 0.003 0 0.004v0.019s0 0.003 0 0.004v0.014s0 0.003 0 0.004v0.009s0 0.003 0 0.004v0.009s0 0.003 0 0.005v0.035s0 0.003 0 0.004v0.020s0 0.003 0 0.004v0.030s0 0.003 0 0.004v0.023s0 0.003 0 0.004v0.003c0 0.002 0 0.005 0 0.007v0.109l0.003 0.015v0.081c-0 0-0 0.001-0 0.001s0 0.001 0 0.001v-0 0.055c0 0.002 0 0.005 0 0.008v0.087l0.003 0.015v0.022l0.004 0.015v0.009s0 0.003 0 0.005v0 0.009l0.007 0.030v0.009l0.004 0.015 0.004 0.015 0.002 0.009 0.004 0.015 0.004 0.015v0.024l0.004 0.014v0.023l0.004 0.015 0.002 0.008v0.013l0.004 0.015 0.002 0.008v0.005l0.002 0.008v0.005l0.007 0.024 0.002 0.008v0.005l0.003 0.009 0.004 0.015 0.003 0.009v0.005l0.003 0.009 0.004 0.014 0.002 0.008v0.005l0.003 0.009 0.004 0.015 0.003 0.008v0.004l0.002 0.008 0.004 0.014 0.002 0.008v0.004l0.002 0.008v0.004l0.003 0.009v0.002l0.003 0.009v0.005l0.003 0.008 0.010 0.029 0.003 0.008 0.010 0.029 0.003 0.008v0.004l0.003 0.008v0.004l0.003 0.009 0.003 0.008v0.004l0.003 0.008v0.004l0.002 0.007v0.002l0.003 0.007v0.009l0.003 0.007v0.008l0.003 0.007v0.002l0.002 0.007v0.009l0.002 0.007v0.010l0.002 0.006v0.019l0.002 0.006v0.035l0.002 0.006v0.063l0.002 0.006v0.036l0.002 0.006v0.010l0.002 0.006v0.019l0.002 0.005v0.010l0.002 0.006v0.019l0.002 0.006v0.010l0.002 0.006v0.019l0.002 0.006v0.010l0.003 0.006v0.008l0.003 0.006v0.002l0.002 0.006v0.010l0.003 0.006v0.002l0.002 0.005 0.003 0.007v0.002l0.003 0.006 0.002 0.006 0.003 0.007 0.002 0.005 0.003 0.006v0.002l0.005 0.012 0.003 0.007 0.003 0.006 0.003 0.007 0.003 0.006 0.006 0.013 0.002 0.005 0.003 0.007 0.003 0.006 0.003 0.007 0.003 0.007 0.006 0.013 0.003 0.006 0.006 0.013 0.003 0.006 0.003 0.007 0.003 0.006 0.003 0.007 0.003 0.007 0.003 0.006 0.003 0.007 0.003 0.006 0.006 0.014 0.004 0.007 0.003 0.007 0.003 0.007 0.004 0.007 0.014 0.029 0.007 0.014 0.004 0.008 0.004 0.007 0.003 0.007 0.004 0.007 0.007 0.015 0.008 0.015 0.004 0.008 0.007 0.014 0.007 0.015 0.004 0.007 0.004 0.007 0.004 0.008 0.008 0.015 0.008 0.014 0.012 0.023c0.184 0.348 0.37 0.644 0.576 0.925l-0.014-0.020c0.007 0.010 0.014 0.020 0.022 0.029z"></path>
<path fill="#c0afe3" style="fill: var(--color12, #c0afe3)" d="M15.564 6.307c-1.042-2.473-3.359-4.221-6.105-4.427l-0.024-0.001c0.861 0.185 1.507 0.91 1.569 1.797l0 0.006c0.917 0.375 1.687 0.946 2.285 1.666l0.008 0.009c0.14-0.033 0.301-0.052 0.467-0.052 0.757 0 1.421 0.397 1.795 0.994l0.005 0.009z"></path>
<path fill="#c0afe3" style="fill: var(--color12, #c0afe3)" d="M15.804 11.123v-0.007l0.008-0.027v-0.014l0.012-0.044c0.003-0.010 0.006-0.021 0.008-0.031s0.007-0.022 0.010-0.033c0.072-0.246 0.137-0.551 0.182-0.862l0.005-0.039c0.003-0.023 0.006-0.044 0.009-0.067v0c0-0.005 0-0.011 0-0.016v0-0.020s0-0.003 0-0.005v-0.016s0-0.003 0-0.005v0c0-0.005 0-0.011 0-0.016v0s0-0.003 0-0.005v0-0.040s0-0.003 0-0.004v-0.008c0-0.003 0-0.006 0-0.009v0s0-0.003 0-0.004v-0.003c-0-0.001-0-0.001-0-0.002s0-0.001 0-0.002v0s0-0.003 0-0.004 0-0.004 0-0.005 0-0.002 0-0.004 0-0.002 0-0.004 0 0 0-0.003 0-0.002 0-0.004v-0.009s0-0.003 0-0.004c0-0 0-0.001 0-0.002s-0-0.001-0-0.002v0s0-0.002 0-0.004v-0.023s0-0.002 0-0.004v-0.004s0-0.004 0-0.005c0-0.001 0-0.001 0-0.002s-0-0.001-0-0.002v0s0-0.002 0-0.004 0-0.002 0-0.004v-0.019c0-0.001 0-0.001 0-0.002s-0-0.001-0-0.002v0-0.004s0-0.003 0-0.005v-0.004s0-0.003 0-0.004v-0.004c0-0.001 0-0.001 0-0.002s-0-0.001-0-0.002v0-0.015s0-0.003 0-0.005v-0.004s0-0.003 0-0.004v-0.003c0-0.001 0-0.001 0-0.002s-0-0.001-0-0.002v0-0.003s0-0.003 0-0.005 0-0.003 0-0.004v-0.004c0-0.001 0-0.001 0-0.002s-0-0.001-0-0.002v0-0.005s0-0.004 0-0.005v-0.003s0-0.003 0-0.005v-0.003s0-0.003 0-0.004c-0-0-0-0.001-0-0.002s0-0.001 0-0.002v0-0.006c-0-0-0-0.001-0-0.001s0-0.001 0-0.001v0s0-0.003 0-0.005 0 0 0-0.003 0-0.003 0-0.004v-0.001s0-0.004 0-0.006v-0.002s0-0.003 0-0.005 0 0 0-0.003 0-0.003 0-0.004 0 0 0-0.003 0-0.004 0-0.005v-0.003s0-0.003 0-0.004v-0.009s0 0 0-0.003 0-0.004 0-0.005v-0.014c-0-0-0-0.001-0-0.002s0-0.001 0-0.002v0s0-0.004 0-0.005 0 0 0-0.003 0-0.003 0-0.005v-0.009s0-0.004 0-0.006v0s0-0.004 0-0.005c-0-0-0-0.001-0-0.001s0-0.001 0-0.001v0-0.004c-0-0-0-0.001-0-0.001s0-0.001 0-0.001v0s0-0.004 0-0.006v0s0-0.004 0-0.005v-0.010c0-0.002 0-0.004 0-0.007v0c0-0.002 0-0.004 0-0.007v-0.009c0-0.004 0-0.009 0-0.014v-0.007c0-0.002 0-0.004 0-0.007v0-0.008s0-0.003 0-0.005v-0.025c0-0.004 0-0.009 0-0.014v-0.002s0-0.003 0-0.005c0-0 0-0.001 0-0.001s-0-0.001-0-0.001v0c0-0.002 0-0.004 0-0.007v0-0.013s0 0 0 0 0-0.004 0-0.005v-0.018s0-0.003 0-0.005v-0.010s0-0.004 0-0.006 0 0 0-0.003 0-0.003 0-0.004v-0.003s0-0.004 0-0.006v0s0-0.004 0-0.006 0 0 0-0.002 0-0.003 0-0.004c0-0 0-0.001 0-0.001s-0-0.001-0-0.001v0c0-0.002 0-0.004 0-0.007v0s0-0.004 0-0.006c0-0 0-0.001 0-0.001s0-0.001-0-0.001v0s0-0.003 0-0.005v-0.002c0-0.002 0-0.004 0-0.007v0c0-0.002 0-0.004 0-0.007 0-0 0-0.001 0-0.001s-0-0.001-0-0.001v0s0-0.003 0-0.005c0-0 0-0.001 0-0.001s-0-0.001-0-0.001v0q0-0.004 0-0.007v0c0-0.002 0-0.004 0-0.007 0-0 0-0.001 0-0.001s-0-0.001-0-0.001v0s0-0.003 0-0.005c-0-0-0-0.001-0-0.001s0-0.001 0-0.001v0c0-0.002 0-0.004 0-0.007v0c0-0.002 0-0.004 0-0.007s0 0 0-0.003 0-0.003 0-0.004v-0.003c0-0.002 0-0.004 0-0.007s0-0.004 0-0.007v0s0-0.004 0-0.005v0c0-0.005 0-0.009 0-0.014v-0.007s0 0 0 0 0-0.009 0-0.014v-0.002s0-0.003 0-0.005v-0.009c0-0.002 0-0.004 0-0.007v-0.022c0-0.004 0-0.009 0-0.014v-0.016c-0.006-0.591-0.082-1.162-0.22-1.708l0.011 0.050c0.002 0.033 0.003 0.073 0.003 0.112 0 0.859-0.513 1.598-1.25 1.927l-0.013 0.005c-0.023 0.42-0.088 0.814-0.19 1.192l0.009-0.040c-0.003 0.011-0.006 0.022-0.008 0.032s-0.006 0.019-0.009 0.028l-0.018 0.061c-0.018 0.061-0.029 0.131-0.029 0.204 0 0.327 0.216 0.604 0.513 0.695l0.005 0.001c0.062 0.019 0.133 0.031 0.207 0.031 0.321 0 0.593-0.212 0.684-0.503l0.001-0.005z"></path>
<path fill="#c0afe3" style="fill: var(--color12, #c0afe3)" d="M3.048 5.536c0.281-0.144 0.613-0.229 0.964-0.229 0.165 0 0.326 0.019 0.48 0.054l-0.014-0.003c0.606-0.729 1.376-1.3 2.254-1.661l0.038-0.014c0.062-0.893 0.708-1.618 1.556-1.801l0.013-0.002c-2.77 0.208-5.086 1.956-6.111 4.382l-0.018 0.047c0.207-0.328 0.49-0.59 0.825-0.766l0.012-0.006z"></path>
<path fill="#e7455f" style="fill: var(--color13, #e7455f)" d="M9.734 13.975l9.862-9.862c0.523-0.523 1.245-0.846 2.042-0.846s1.52 0.323 2.042 0.846l7.467 7.467c0.523 0.523 0.846 1.245 0.846 2.042s-0.323 1.52-0.846 2.042l-9.86 9.864c-0.523 0.523-1.245 0.846-2.042 0.846s-1.52-0.323-2.042-0.846l-7.467-7.467c-0.524-0.523-0.848-1.246-0.848-2.044s0.323-1.52 0.846-2.042v0z"></path>
<path fill="#5628b4" style="fill: var(--color7, #5628b4)" d="M23.329 23.485l7.819-7.819c0.522-0.523 0.846-1.245 0.846-2.042s-0.323-1.52-0.846-2.042l-1.094-1.094h-3.837c-1.596 0-2.889 1.293-2.889 2.889v0 0z"></path>
<path fill="#ef8192" style="fill: var(--color14, #ef8192)" d="M25.918 6.454c-0.185-0.184-0.44-0.299-0.722-0.299s-0.537 0.114-0.722 0.299l-2.29 2.29c-0.184 0.185-0.299 0.44-0.299 0.722s0.114 0.537 0.299 0.722l-0-0c0.185 0.184 0.44 0.299 0.722 0.299s0.537-0.114 0.722-0.299l2.29-2.29c0.184-0.185 0.299-0.44 0.299-0.722s-0.114-0.537-0.299-0.722l0 0z"></path>
<path fill="#673dbc" style="fill: var(--color15, #673dbc)" d="M31.97 13.376h-14.418c-1.595 0-2.889 1.293-2.889 2.889v0 0 6.725l2.538 2.538c0.523 0.522 1.245 0.846 2.042 0.846s1.52-0.323 2.042-0.846l9.861-9.861c0.516-0.519 0.835-1.234 0.835-2.023 0-0.094-0.005-0.187-0.013-0.279l0.001 0.012z"></path>
<path fill="#f7b236" style="fill: var(--color16, #f7b236)" d="M23.329 8.322c0 1.196-0.97 2.166-2.166 2.166s-2.166-0.97-2.166-2.166c0-1.196 0.97-2.166 2.166-2.166s2.166 0.97 2.166 2.166z"></path>
<path fill="#ef8192" style="fill: var(--color14, #ef8192)" d="M12.498 12.654l2.889-2.889c0.185-0.184 0.44-0.299 0.722-0.299s0.537 0.114 0.722 0.299l-0-0c0.185 0.184 0.44 0.299 0.722 0.299s0.537-0.114 0.722-0.299l1.444-1.444c0.185-0.184 0.44-0.299 0.722-0.299s0.537 0.114 0.722 0.299l-0-0c0.184 0.185 0.299 0.44 0.299 0.722s-0.114 0.537-0.299 0.722l-2.889 2.889c-0.185 0.184-0.44 0.299-0.722 0.299s-0.537-0.114-0.722-0.299l0 0c-0.185-0.184-0.44-0.299-0.722-0.299s-0.537 0.114-0.722 0.299l-1.444 1.444c-0.185 0.184-0.44 0.299-0.722 0.299s-0.537-0.114-0.722-0.299l0 0c-0.193-0.184-0.313-0.444-0.313-0.731 0-0.274 0.109-0.522 0.286-0.704l-0 0c0.005-0.006 0.012-0.010 0.020-0.010 0.002 0 0.005 0 0.007 0.001l-0-0z"></path>
<path fill="#f7b236" style="fill: var(--color16, #f7b236)" d="M29.105 32.15h-23.107c-1.595 0-2.889-1.293-2.889-2.889v0l-2.889-11.552c0-1.596 1.293-2.889 2.889-2.889v0h23.107c1.596 0 2.889 1.293 2.889 2.889v0 0l2.889 11.553c0 1.596-1.293 2.889-2.889 2.889v0z"></path>
<path fill="#f9d187" style="fill: var(--color17, #f9d187)" d="M2.389 16.264h24.55c0.399 0 0.722 0.323 0.722 0.722v0 0c0 0.399-0.323 0.722-0.722 0.722v0h-24.55c-0.399 0-0.722-0.323-0.722-0.722v0 0c0-0.399 0.323-0.722 0.722-0.722v0z"></path>
<path fill="#f58e0b" style="fill: var(--color18, #f58e0b)" d="M6.722 30.704h21.66c0.399 0 0.722 0.323 0.722 0.722v0 0c0 0.399-0.323 0.722-0.722 0.722v0h-21.66c-0.399 0-0.722-0.323-0.722-0.722v0 0c0-0.399 0.323-0.722 0.722-0.722v0z"></path>
<path fill="#f58e0b" style="fill: var(--color18, #f58e0b)" d="M7.444 29.984v-7l5.778-0.963v4.652c-0.424-0.19-0.92-0.3-1.441-0.3-0.001 0-0.002 0-0.003 0h0c-1.595 0-2.889 0.97-2.889 2.166s1.293 2.166 2.889 2.166 2.889-0.97 2.889-2.166v-7.94c-0-0.798-0.647-1.444-1.444-1.444-0.084 0-0.166 0.007-0.246 0.021l0.009-0.001-5.778 0.963c-0.689 0.118-1.207 0.711-1.207 1.424v6.558c-0.424-0.19-0.92-0.3-1.441-0.3-0.001 0-0.002 0-0.003 0h0c-0.007-0-0.016-0-0.024-0-0.614 0-1.191 0.156-1.694 0.432l0.018-0.009 0.256 1.022c0.002 1.353 0.936 2.487 2.194 2.796l0.020 0.004c1.219-0.254 2.119-1.084 2.119-2.079z"></path>
<path fill="#d80e70" style="fill: var(--color19, #d80e70)" d="M5.761 18.691c-0.689 0.118-1.207 0.711-1.207 1.424 0 0 0 0 0 0v0 6.558c-0.425-0.19-0.92-0.3-1.441-0.3-0.001 0-0.002 0-0.003 0h0c-1.595 0-2.889 0.97-2.889 2.166s1.293 2.166 2.889 2.166 2.889-0.97 2.889-2.166v-7l5.778-0.963v4.652c-0.424-0.19-0.92-0.3-1.441-0.3-0.001 0-0.002 0-0.003 0h0c-1.595 0-2.889 0.97-2.889 2.166s1.293 2.166 2.889 2.166 2.889-0.97 2.889-2.166v-7.943c-0-0.798-0.647-1.444-1.444-1.444-0.084 0-0.166 0.007-0.245 0.021l0.009-0.001z"></path>
<path fill="#e76ba7" style="fill: var(--color20, #e76ba7)" d="M3.111 28.54c0 0.399-0.323 0.722-0.722 0.722s-0.722-0.323-0.722-0.722c0-0.399 0.323-0.722 0.722-0.722s0.722 0.323 0.722 0.722z"></path>
<path fill="#e76ba7" style="fill: var(--color20, #e76ba7)" d="M10.332 27.096c0 0.399-0.323 0.722-0.722 0.722s-0.722-0.323-0.722-0.722c0-0.399 0.323-0.722 0.722-0.722s0.722 0.323 0.722 0.722z"></path>
</symbol>
<symbol id="icon-notebook" viewBox="0 0 32 32">
<path d="M20.812 6.388l-9.277 1.853c-0.443 0.075-0.776 0.457-0.776 0.916 0 0.513 0.415 0.928 0.928 0.928 0.075 0 0.148-0.009 0.219-0.026l-0.006 0.001 9.277-1.853c0.443-0.075 0.776-0.457 0.776-0.916 0-0.513-0.415-0.928-0.928-0.928-0.075 0-0.148 0.009-0.219 0.026l0.006-0.001zM20.812 11.027l-9.277 1.853c-0.443 0.075-0.776 0.457-0.776 0.916 0 0.513 0.415 0.928 0.928 0.928 0.075 0 0.148-0.009 0.219-0.026l-0.006 0.001 9.277-1.853c0.443-0.075 0.776-0.457 0.776-0.916 0-0.513-0.415-0.928-0.928-0.928-0.075 0-0.148 0.009-0.219 0.026l0.006-0.001zM20.812 15.665l-9.277 1.853c-0.443 0.075-0.776 0.457-0.776 0.916 0 0.513 0.415 0.928 0.928 0.928 0.075 0 0.148-0.009 0.219-0.026l-0.006 0.001 9.277-1.853c0.443-0.075 0.776-0.457 0.776-0.916 0-0.513-0.415-0.928-0.928-0.928-0.075 0-0.148 0.009-0.219 0.026l0.006-0.001zM20.812 20.303l-9.277 1.853c-0.443 0.075-0.776 0.457-0.776 0.916 0 0.513 0.415 0.928 0.928 0.928 0.075 0 0.148-0.009 0.219-0.026l-0.006 0.001 9.277-1.853c0.443-0.075 0.776-0.457 0.776-0.916 0-0.513-0.415-0.928-0.928-0.928-0.075 0-0.148 0.009-0.219 0.026l0.006-0.001zM28.414 3.773h-2.782v-2.845c0-0 0-0 0-0 0-0.513-0.415-0.928-0.928-0.928-0.066 0-0.13 0.007-0.191 0.020l0.006-0.001-18.552 3.773c-0.427 0.089-0.743 0.462-0.743 0.909 0 0 0 0 0 0v0 2.782h-0.928c-0.488 0.030-0.872 0.433-0.872 0.926s0.384 0.896 0.869 0.926l0.003 0h0.925v1.853h-0.928c-0.488 0.030-0.872 0.433-0.872 0.926s0.384 0.896 0.869 0.926l0.003 0h0.928v1.853h-0.928c-0.488 0.030-0.872 0.433-0.872 0.926s0.384 0.896 0.869 0.926l0.003 0h0.928v1.853h-0.928c-0.488 0.030-0.872 0.433-0.872 0.926s0.384 0.896 0.869 0.926l0.003 0h0.928v1.853h-0.928c-0.488 0.030-0.872 0.433-0.872 0.926s0.384 0.896 0.869 0.926l0.003 0h0.928v1.853h-0.928c-0.488 0.030-0.872 0.433-0.872 0.926s0.384 0.896 0.869 0.926l0.003 0h0.928v2.845c0.002 0.512 0.416 0.926 0.928 0.928h22.265c0.513 0 0.928-0.415 0.928-0.928v0-26.006c0-0.513-0.415-0.928-0.928-0.928v0zM7.074 27.891h0.928c0.488-0.030 0.872-0.433 0.872-0.926s-0.384-0.896-0.869-0.926l-0.003-0h-0.928v-1.853h0.928c0.488-0.030 0.872-0.433 0.872-0.926s-0.384-0.896-0.869-0.926l-0.003-0h-0.928v-1.853h0.928c0.488-0.030 0.872-0.433 0.872-0.926s-0.384-0.896-0.869-0.926l-0.003-0h-0.928v-1.853h0.928c0.488-0.030 0.872-0.433 0.872-0.926s-0.384-0.896-0.869-0.926l-0.003-0h-0.928v-1.853h0.928c0.488-0.030 0.872-0.433 0.872-0.926s-0.384-0.896-0.869-0.926l-0.003-0h-0.928v-1.853h0.928c0.488-0.030 0.872-0.433 0.872-0.926s-0.384-0.896-0.869-0.926l-0.003-0h-0.928v-2.021l16.697-3.395v24.109l-16.697 3.395zM27.486 29.811h-12.126l9.519-1.935c0.427-0.089 0.743-0.462 0.743-0.909 0-0 0-0 0-0v0-21.337h1.853z"></path>
</symbol>
<symbol id="icon-team-fill-1" viewBox="0 0 32 32">
<path fill="#452b4e" style="fill: var(--color1, #452b4e)" d="M16 14.666c3.682 0 6.666 2.985 6.666 6.666v0 8h-13.334v-8c0-3.682 2.985-6.666 6.666-6.666 0.001 0 0.001 0 0.002 0h-0zM7.045 18.666c-0.2 0.649-0.334 1.401-0.373 2.178l-0.001 0.022-0.010 0.458v8h-3.995v-5.991c0-0 0-0 0-0.001 0-2.399 1.81-4.375 4.139-4.637l0.021-0.002 0.219-0.027zM24.943 18.666c2.45 0.157 4.378 2.183 4.379 4.658v6.001h-3.99v-8c0-0.004 0-0.009 0-0.013 0-0.943-0.14-1.854-0.401-2.712l0.017 0.066zM7.333 10.666c1.841 0 3.333 1.492 3.333 3.333s-1.492 3.333-3.333 3.333c-1.841 0-3.333-1.492-3.333-3.333v0c0-1.841 1.492-3.333 3.333-3.333v0zM24.667 10.666c1.841 0 3.333 1.492 3.333 3.333s-1.492 3.333-3.333 3.333c-1.841 0-3.333-1.492-3.333-3.333v0c0-1.841 1.492-3.333 3.333-3.333v0zM16 2.666c2.946 0 5.334 2.388 5.334 5.334s-2.388 5.334-5.334 5.334c-2.946 0-5.334-2.388-5.334-5.334v0c0-2.946 2.388-5.334 5.334-5.334v0z"></path>
</symbol>
<symbol id="icon-facebook" viewBox="0 0 18 32">
<path d="M17.125 0.214v4.714h-2.803c-2.197 0-2.607 1.054-2.607 2.571v3.375h5.232l-0.696 5.286h-4.536v13.553h-5.464v-13.553h-4.553v-5.286h4.553v-3.893c0-4.518 2.768-6.982 6.803-6.982 1.928 0 3.59 0.143 4.072 0.214z"></path>
</symbol>
<symbol id="icon-instagram" viewBox="0 0 27 32">
<path d="M18.286 16c0-2.518-2.054-4.571-4.571-4.571s-4.571 2.054-4.571 4.571 2.054 4.571 4.571 4.571 4.571-2.054 4.571-4.571zM20.75 16c0 3.893-3.143 7.035-7.035 7.035s-7.035-3.143-7.035-7.035 3.143-7.035 7.035-7.035 7.035 3.143 7.035 7.035zM22.679 8.679c0 0.911-0.733 1.642-1.642 1.642s-1.642-0.733-1.642-1.642 0.733-1.642 1.642-1.642 1.642 0.733 1.642 1.642zM13.714 4.75c-2 0-6.286-0.161-8.089 0.553-0.625 0.25-1.089 0.553-1.571 1.035s-0.786 0.946-1.035 1.571c-0.714 1.803-0.553 6.089-0.553 8.089s-0.161 6.286 0.553 8.089c0.25 0.625 0.553 1.089 1.035 1.571s0.946 0.786 1.571 1.035c1.803 0.714 6.089 0.553 8.089 0.553s6.286 0.161 8.089-0.553c0.625-0.25 1.089-0.553 1.571-1.035s0.786-0.946 1.035-1.571c0.714-1.803 0.553-6.089 0.553-8.089s0.161-6.286-0.553-8.089c-0.25-0.625-0.553-1.089-1.035-1.571s-0.946-0.786-1.571-1.035c-1.803-0.714-6.089-0.553-8.089-0.553zM27.429 16c0 1.893 0.018 3.768-0.089 5.661-0.107 2.197-0.607 4.143-2.214 5.75s-3.553 2.107-5.75 2.214c-1.893 0.107-3.768 0.089-5.661 0.089s-3.768 0.018-5.661-0.089c-2.197-0.107-4.143-0.607-5.75-2.214s-2.107-3.553-2.214-5.75c-0.107-1.893-0.089-3.768-0.089-5.661s-0.018-3.768 0.089-5.661c0.107-2.197 0.607-4.143 2.214-5.75s3.553-2.107 5.75-2.214c1.893-0.107 3.768-0.089 5.661-0.089s3.768-0.018 5.661 0.089c2.197 0.107 4.143 0.607 5.75 2.214s2.107 3.553 2.214 5.75c0.107 1.893 0.089 3.768 0.089 5.661z"></path>
</symbol>
<symbol id="icon-twitter" viewBox="0 0 30 32">
<path d="M28.928 7.286c-0.786 1.143-1.768 2.161-2.893 2.982 0.018 0.25 0.018 0.501 0.018 0.75 0 7.625-5.803 16.41-16.41 16.41-3.267 0-6.304-0.946-8.857-2.59 0.464 0.054 0.911 0.072 1.393 0.072 2.696 0 5.178-0.911 7.161-2.464-2.536-0.054-4.661-1.714-5.393-4 0.358 0.054 0.714 0.089 1.089 0.089 0.518 0 1.035-0.072 1.518-0.197-2.642-0.536-4.625-2.857-4.625-5.661v-0.072c0.768 0.429 1.661 0.696 2.607 0.733-1.553-1.035-2.571-2.803-2.571-4.803 0-1.072 0.286-2.054 0.786-2.911 2.839 3.499 7.107 5.786 11.893 6.035-0.089-0.429-0.143-0.875-0.143-1.321 0-3.178 2.571-5.768 5.768-5.768 1.661 0 3.161 0.696 4.214 1.822 1.304-0.25 2.553-0.733 3.661-1.393-0.429 1.339-1.339 2.464-2.536 3.178 1.161-0.125 2.286-0.447 3.321-0.893z"></path>
</symbol>
<symbol id="icon-google-plus" viewBox="0 0 41 32">
<path d="M25.661 16.304c0 7.482-5.018 12.786-12.571 12.786-7.232 0-13.089-5.857-13.089-13.089s5.857-13.089 13.089-13.089c3.536 0 6.482 1.286 8.768 3.429l-3.553 3.41c-0.965-0.928-2.661-2.018-5.214-2.018-4.464 0-8.107 3.696-8.107 8.267s3.642 8.267 8.107 8.267c5.178 0 7.125-3.733 7.429-5.642h-7.429v-4.501h12.358c0.125 0.661 0.214 1.321 0.214 2.178zM41.143 14.125v3.75h-3.733v3.733h-3.75v-3.733h-3.733v-3.75h3.733v-3.733h3.75v3.733h3.733z"></path>
</symbol>
<symbol id="icon-user-fill" viewBox="0 0 32 32">
<path fill="#452b4e" style="fill: var(--color1, #452b4e)" d="M5.334 29.334c0-5.891 4.776-10.667 10.667-10.667s10.667 4.776 10.667 10.667v0zM16 17.334c-4.418 0-8-3.582-8-8s3.582-8 8-8c4.418 0 8 3.582 8 8v0c0 0.001 0 0.001 0 0.002 0 4.417-3.581 7.998-7.998 7.998-0.001 0-0.001 0-0.002 0h0z"></path>
</symbol>
<symbol id="icon-notification-2-fill" viewBox="0 0 32 32">
<path fill="#452b4e" style="fill: var(--color1, #452b4e)" d="M29.333 26.667h-26.667v-2.667h1.333v-9.295c0-6.627 5.373-12 12-12s12 5.373 12 12v0 9.295h1.333zM12.666 28h6.667c-0.040 1.81-1.517 3.263-3.333 3.263s-3.293-1.452-3.333-3.259l-0-0.004z"></path>
</symbol>
<symbol id="icon-arrow-prev" viewBox="0 0 65 32">
<path fill="#ffcc7b" style="fill: var(--color1, #ffcc7b)" d="M60.574 19.995h-46.807l5.228 5.173c0.729 0.721 1.181 1.722 1.181 2.828s-0.452 2.107-1.181 2.828l-0 0c-0.734 0.726-1.744 1.174-2.859 1.174s-2.124-0.448-2.859-1.174l0 0-12.121-12.002c-0.332-0.338-0.604-0.736-0.798-1.177l-0.010-0.025c-0.048-0.108-0.096-0.243-0.135-0.381l-0.006-0.023c-0.106-0.285-0.18-0.616-0.207-0.96l-0.001-0.013c-0.005-0.060-0.007-0.131-0.007-0.202s0.003-0.142 0.008-0.211l-0.001 0.009c0.014-0.455 0.104-0.885 0.257-1.284l-0.009 0.027c0.009-0.045 0.018-0.082 0.030-0.118l-0.002 0.008c0.208-0.455 0.479-0.844 0.808-1.175l-0 0c0.034-0.037 0.046-0.086 0.080-0.122l12.127-12.005c0.735-0.725 1.745-1.172 2.859-1.172s2.124 0.448 2.859 1.173l-0-0c0.729 0.721 1.181 1.722 1.181 2.828s-0.452 2.107-1.181 2.828l-0 0-5.241 5.179h46.807c0.074-0.005 0.16-0.008 0.247-0.008 2.21 0 4.002 1.792 4.002 4.002s-1.792 4.002-4.002 4.002c-0.087 0-0.173-0.003-0.259-0.008l0.012 0.001z"></path>
</symbol>
<symbol id="icon-arrow-next" viewBox="0 0 65 32">
<path fill="#ffcc7b" style="fill: var(--color1, #ffcc7b)" d="M4.246 19.995h46.807l-5.228 5.173c-0.729 0.721-1.181 1.722-1.181 2.828s0.452 2.107 1.181 2.828l0 0c0.734 0.726 1.744 1.174 2.859 1.174s2.124-0.448 2.859-1.174l-0 0 12.121-12.002c0.332-0.338 0.604-0.736 0.798-1.177l0.010-0.025c0.048-0.108 0.096-0.243 0.135-0.381l0.006-0.023c0.106-0.285 0.18-0.616 0.207-0.96l0.001-0.013c0.005-0.060 0.007-0.131 0.007-0.202s-0.003-0.142-0.008-0.211l0.001 0.009c-0.014-0.455-0.104-0.885-0.257-1.284l0.009 0.027c-0.009-0.045-0.018-0.082-0.030-0.118l0.002 0.008c-0.208-0.455-0.479-0.844-0.808-1.175l0 0c-0.034-0.037-0.046-0.086-0.080-0.122l-12.127-12.005c-0.735-0.725-1.745-1.172-2.859-1.172s-2.124 0.448-2.859 1.173l0-0c-0.729 0.721-1.181 1.722-1.181 2.828s0.452 2.107 1.181 2.828l0 0 5.241 5.179h-46.807c-0.074-0.005-0.16-0.008-0.247-0.008-2.21 0-4.002 1.792-4.002 4.002s1.792 4.002 4.002 4.002c0.087 0 0.173-0.003 0.259-0.008l-0.012 0.001z"></path>
</symbol>
<symbol id="icon-angle-left" viewBox="0 0 13 32">
<path d="M11.197 9.714c0 0.143-0.072 0.304-0.178 0.41l-7.018 7.018 7.018 7.018c0.107 0.107 0.178 0.267 0.178 0.41s-0.072 0.304-0.178 0.41l-0.893 0.893c-0.107 0.107-0.267 0.178-0.41 0.178s-0.304-0.072-0.41-0.178l-8.321-8.321c-0.107-0.107-0.178-0.267-0.178-0.41s0.072-0.304 0.178-0.41l8.321-8.321c0.107-0.107 0.267-0.178 0.41-0.178s0.304 0.072 0.41 0.178l0.893 0.893c0.107 0.107 0.178 0.25 0.178 0.41z"></path>
</symbol>
<symbol id="icon-paint-roller" viewBox="0 0 32 32">
<path fill="#8a589b" style="fill: var(--color21, #8a589b)" d="M17.455 1.454l-5.73 5.73c-0.372 0.372-0.602 0.887-0.602 1.455s0.23 1.082 0.602 1.454v0c0.372 0.372 0.602 0.886 0.602 1.454s-0.23 1.082-0.602 1.454v0c-0.745 0.744-1.205 1.773-1.205 2.909s0.46 2.165 1.205 2.909v0c0.372 0.372 0.602 0.887 0.602 1.454s-0.23 1.082-0.602 1.454l-0.725 0.725c-0.558 0.558-0.904 1.33-0.904 2.182s0.345 1.623 0.904 2.182v0c0.558 0.558 1.33 0.904 2.182 0.904s1.623-0.345 2.182-0.904l13.73-13.73z"></path>
<path fill="#ddd6f1" style="fill: var(--color22, #ddd6f1)" d="M31.148 16.602l-3.511-3.511-1.454 1.454 3.086 3.086c0.26 0.264 0.421 0.628 0.421 1.028s-0.161 0.764-0.421 1.029l-2.306 2.306c-0.263 0.263-0.627 0.426-1.028 0.426s-0.765-0.163-1.028-0.426l-6.12-6.119c-0.526-0.526-1.254-0.852-2.057-0.852s-1.531 0.326-2.057 0.852l-5.944 5.943 1.454 1.454 5.517-5.517c0.263-0.263 0.627-0.426 1.028-0.426s0.765 0.163 1.028 0.426l6.119 6.119c0.526 0.526 1.254 0.852 2.057 0.852s1.531-0.326 2.057-0.852l3.157-3.157c0.581-0.522 0.945-1.276 0.945-2.115 0-0.75-0.291-1.432-0.766-1.94l0.001 0.002c-0.030-0.042-0.079-0.069-0.135-0.069-0.016 0-0.032 0.002-0.047 0.007l0.001-0z"></path>
<path fill="#cbc0e9" style="fill: var(--color23, #cbc0e9)" d="M12.364 18.182l1.455-1.455c0.186-0.186 0.443-0.301 0.727-0.301s0.541 0.115 0.727 0.301v0c0.186 0.186 0.301 0.443 0.301 0.727s-0.115 0.541-0.301 0.727l-1.455 1.455c-0.186 0.186-0.443 0.301-0.727 0.301s-0.541-0.115-0.727-0.301v0c-0.186-0.186-0.301-0.443-0.301-0.727s0.115-0.541 0.301-0.727v0z"></path>
<path fill="#452b4e" style="fill: var(--color1, #452b4e)" d="M26.909 15.273l1.455-1.455c0.186-0.186 0.443-0.301 0.727-0.301s0.541 0.115 0.727 0.301v0c0.186 0.186 0.301 0.443 0.301 0.727s-0.115 0.541-0.301 0.727l-1.455 1.455c-0.186 0.186-0.443 0.301-0.727 0.301s-0.541-0.115-0.727-0.301v0c-0.186-0.186-0.301-0.443-0.301-0.727s0.115-0.541 0.301-0.727v0z"></path>
<path fill="#452b4e" style="fill: var(--color1, #452b4e)" d="M26.909 15.272l0.427-0.427c0.186-0.186 0.443-0.301 0.727-0.301s0.541 0.115 0.727 0.301v0c0.186 0.186 0.301 0.443 0.301 0.727s-0.115 0.541-0.301 0.727l-0.427 0.427c-0.186 0.186-0.443 0.301-0.727 0.301s-0.541-0.115-0.727-0.301v0c-0.186-0.186-0.301-0.443-0.301-0.727s0.115-0.541 0.301-0.727v0z"></path>
<path fill="#452b4e" style="fill: var(--color1, #452b4e)" d="M13.818 2.182l1.455-1.455c0.186-0.186 0.443-0.301 0.727-0.301s0.541 0.115 0.727 0.301v0c0.186 0.186 0.301 0.443 0.301 0.727s-0.115 0.541-0.301 0.727l-1.455 1.455c-0.186 0.186-0.443 0.301-0.727 0.301s-0.541-0.115-0.727-0.301v0c-0.186-0.186-0.301-0.443-0.301-0.727s0.115-0.541 0.301-0.727v0z"></path>
<path fill="#452b4e" style="fill: var(--color1, #452b4e)" d="M13.818 2.181l0.427-0.427c0.186-0.186 0.443-0.301 0.727-0.301s0.541 0.115 0.727 0.301v0c0.186 0.186 0.301 0.443 0.301 0.727s-0.115 0.541-0.301 0.727l-0.427 0.427c-0.186 0.186-0.443 0.301-0.727 0.301s-0.541-0.115-0.727-0.301v0c-0.186-0.186-0.301-0.443-0.301-0.727s0.115-0.541 0.301-0.727v0z"></path>
<path fill="#f7b236" style="fill: var(--color16, #f7b236)" d="M13.516 4.186l3.761-3.761c0.263-0.263 0.627-0.426 1.028-0.426s0.765 0.163 1.028 0.426l10.784 10.784c0.263 0.263 0.426 0.627 0.426 1.028s-0.163 0.765-0.426 1.028l-3.76 3.762c-0.263 0.263-0.627 0.426-1.028 0.426s-0.765-0.163-1.028-0.426l-10.786-10.785c-0.263-0.263-0.426-0.627-0.426-1.029s0.163-0.766 0.426-1.029v0z"></path>
<path fill="#e7455f" style="fill: var(--color13, #e7455f)" d="M15.275 21.091l-4.365-4.365c-0.186-0.186-0.443-0.301-0.727-0.301s-0.541 0.115-0.727 0.301v0c-0.167 0.194-0.268 0.449-0.268 0.727s0.101 0.533 0.269 0.729l-0.001-0.002 0.384 0.384c0.186 0.186 0.301 0.443 0.301 0.727 0 0.364-0.189 0.684-0.474 0.866l-0.004 0.002-7.614 4.817c-1.222 0.623-2.045 1.872-2.045 3.313 0 2.047 1.659 3.706 3.706 3.706 1.441 0 2.69-0.823 3.303-2.024l0.010-0.021 4.817-7.612c0.185-0.289 0.505-0.478 0.869-0.478 0.284 0 0.541 0.115 0.727 0.301l0.384 0.384c0.185 0.178 0.436 0.287 0.713 0.287 0.568 0 1.029-0.461 1.029-1.029 0-0.277-0.109-0.528-0.287-0.713l0 0z"></path>
<path fill="#f59100" style="fill: var(--color24, #f59100)" d="M13.393 4.664c0.186-0.186 0.443-0.301 0.727-0.301s0.541 0.115 0.727 0.301l11.034 11.034c0.195 0.187 0.316 0.45 0.316 0.742 0 0.568-0.461 1.029-1.029 1.029-0.291 0-0.554-0.121-0.741-0.316l-0-0-11.034-11.034c-0.186-0.186-0.301-0.443-0.301-0.727s0.115-0.541 0.301-0.727v0z"></path>
<path fill="#cd324f" style="fill: var(--color25, #cd324f)" d="M15.273 21.091c-0.436-0.436-1.038-0.706-1.703-0.706-0.873 0-1.637 0.464-2.060 1.159l-0.006 0.011-4.004 6.674c-0.836 1.376-2.326 2.281-4.028 2.281-1.318 0-2.509-0.543-3.362-1.417l-0.001-0.001c0.152 0.717 0.497 1.337 0.978 1.823l-0-0c0.671 0.671 1.597 1.086 2.621 1.086 1.443 0 2.693-0.824 3.306-2.028l0.010-0.021 4.817-7.61c0.185-0.289 0.504-0.478 0.868-0.478 0.114 0 0.224 0.019 0.327 0.053l-0.007-0.002 0.409 0.249 0.384 0.384c0.185 0.178 0.436 0.287 0.713 0.287 0.568 0 1.029-0.461 1.029-1.029 0-0.277-0.109-0.528-0.287-0.713l0 0z"></path>
<path fill="#fad591" style="fill: var(--color26, #fad591)" d="M17.455 1.454v0c0.372-0.372 0.887-0.603 1.454-0.603s1.082 0.23 1.454 0.603l8.727 8.727c0.372 0.372 0.602 0.886 0.602 1.454s-0.23 1.082-0.602 1.454v0c-0.372 0.372-0.887 0.603-1.454 0.603s-1.082-0.23-1.454-0.602l-8.727-8.728c-0.372-0.372-0.602-0.886-0.602-1.454s0.23-1.082 0.602-1.454v0z"></path>
</symbol>
<symbol id="icon-play" viewBox="0 0 32 32">
<path fill="#fff" style="fill: var(--color3, #fff)" d="M22.094 6.075c5.481 3.361 7.2 10.528 3.839 16.009s-10.528 7.2-16.009 3.839c-5.481-3.361-7.2-10.528-3.839-16.009s10.528-7.2 16.009-3.839z"></path>
<path fill="#452b4e" style="fill: var(--color1, #452b4e)" d="M14.761 13.995c-0.366-0.21-0.662-0.038-0.662 0.384v3.111c0 0.422 0.296 0.593 0.662 0.384l2.719-1.559c0.366-0.21 0.366-0.55 0-0.76z"></path>
</symbol>
<symbol id="icon-search-line" viewBox="0 0 32 32">
<path d="M24.042 22.157l5.71 5.709-1.886 1.886-5.709-5.71c-2.033 1.635-4.646 2.625-7.49 2.625-6.627 0-12-5.373-12-12s5.373-12 12-12c6.627 0 12 5.373 12 12 0 2.844-0.989 5.457-2.643 7.514l0.018-0.023zM21.366 21.168c1.629-1.678 2.633-3.97 2.633-6.496 0-5.153-4.177-9.33-9.33-9.33s-9.33 4.177-9.33 9.33c0 5.153 4.177 9.33 9.33 9.33 2.527 0 4.819-1.004 6.499-2.636l-0.002 0.002 0.2-0.2z"></path>
</symbol>
<symbol id="icon-shopping-basket-2-fill" viewBox="0 0 32 32">
<path fill="#452b4e" style="fill: var(--color1, #452b4e)" d="M20.19 6.112l3.996 6.51h4.26v2.338h-1.452l-0.942 10.631c-0.074 0.608-0.587 1.074-1.209 1.074-0.011 0-0.022-0-0.032-0l0.002 0h-17.623c-0.009 0-0.020 0-0.031 0-0.622 0-1.134-0.466-1.208-1.068l-0.001-0.006-0.943-10.631h-1.451v-2.338h4.258l3.998-6.51 2.155 1.17-3.273 5.339h10.622l-3.282-5.339 2.155-1.17zM17.246 17.303h-2.49v4.677h2.489zM12.268 17.303h-2.49v4.677h2.489zM22.224 17.303h-2.491v4.677h2.489z"></path>
</symbol>
<symbol id="icon-star-with-five-points" viewBox="0 0 32 32">
<path fill="#ff805d" style="fill: var(--color27, #ff805d)" d="M31.3 12.36c-0.482-1.506-3.128-1.848-5.933-2.219-1.389-0.078-2.688-0.372-3.894-0.85l0.084 0.029c-0.781-0.971-1.431-2.091-1.897-3.303l-0.029-0.085c-1.184-2.564-2.313-4.981-3.891-4.984h-0.030c-1.56 0.021-2.699 2.408-3.91 4.943-0.508 1.292-1.167 2.407-1.972 3.398l0.018-0.023c-1.128 0.434-2.432 0.715-3.792 0.78l-0.029 0.001c-2.801 0.348-5.461 0.661-5.948 2.157s1.44 3.336 3.499 5.28c1.009 0.828 1.87 1.785 2.572 2.857l0.029 0.048c0.008 0.165 0.012 0.358 0.012 0.552 0 1.181-0.164 2.324-0.47 3.408l0.021-0.088c-0.544 2.769-1.056 5.391 0.213 6.33 0.291 0.201 0.651 0.32 1.038 0.32 0.032 0 0.064-0.001 0.096-0.002l-0.004 0c1.879-0.363 3.546-1.063 5.014-2.040l-0.050 0.031c1.024-0.672 2.21-1.213 3.476-1.559l0.087-0.020c1.351 0.376 2.532 0.927 3.597 1.639l-0.045-0.028c1.434 0.995 3.134 1.72 4.969 2.058l0.080 0.012c0.008 0 0.017 0 0.027 0 0.377 0 0.726-0.118 1.012-0.318l-0.006 0.004c1.278-0.92 0.791-3.541 0.277-6.321-0.264-0.968-0.416-2.080-0.416-3.227 0-0.229 0.006-0.457 0.018-0.684l-0.001 0.032c0.744-1.108 1.616-2.057 2.611-2.859l0.024-0.019c2.067-1.933 4.021-3.746 3.543-5.25z"></path>
</symbol>
<symbol id="icon-target" viewBox="0 0 32 32">
<path fill="#f5bfc9" style="fill: var(--color28, #f5bfc9)" d="M17.455 2.91c8.033 0 14.545 6.512 14.545 14.545s-6.512 14.545-14.545 14.545h-2.909c-8.033 0-14.545-6.512-14.545-14.545s6.512-14.545 14.545-14.545v0z"></path>
<path fill="#e7455f" style="fill: var(--color13, #e7455f)" d="M31.999 17.455c0 8.033-6.512 14.545-14.545 14.545s-14.545-6.512-14.545-14.545c0-8.033 6.512-14.545 14.545-14.545s14.545 6.512 14.545 14.545z"></path>
<path fill="#e22241" style="fill: var(--color29, #e22241)" d="M32 17.421v-0.026c0-0.003 0-0.007 0-0.010v0c0-0.003 0-0.006 0-0.009v-0.029c0-0.003 0-0.007 0-0.010v0c0-0.003 0-0.006 0-0.009 0-0 0-0.001 0-0.001s0-0.001-0-0.001v0c0-0.003 0-0.007 0-0.010v-0.002c0-0.003 0-0.006 0-0.009v0c0-0.003 0-0.007 0-0.010s0 0 0-0.003 0-0.006 0-0.009v0c0-0.003 0-0.007 0-0.010s0 0 0-0.003 0-0.006 0-0.009v0c0-0.003 0-0.007 0-0.010v-0.003c0-0.003 0-0.006 0-0.009v0c0-0.003 0-0.006 0-0.010v-0.012c0-0.003 0-0.006 0-0.010v0c0-0.003 0-0.007 0-0.011s0-0.007 0-0.010v0c0-0.003 0-0.007 0-0.010s0 0 0-0.003 0-0.007 0-0.010v0c0-0.003 0-0.007 0-0.011v0c0-0.007 0-0.014 0-0.021v0c0-0.007 0-0.014 0-0.021v-0.013c0-0.003 0-0.006 0-0.009-0-0-0-0.001-0-0.001s0-0.001 0-0.001v0-0.064s0 0 0 0v-0.022c0-0.004 0-0.006 0-0.010v0c0-0.003 0-0.006 0-0.009v0c0-0.003 0-0.007 0-0.010s0-0.006 0-0.009v0c0-0.003 0-0.007 0-0.010s0 0 0-0.002 0-0.006 0-0.009v0c0-0.003 0-0.007 0-0.010v-0.002c0-0.003 0-0.006 0-0.009v0c0-0.003 0-0.007 0-0.010s0 0 0-0.003 0-0.006 0-0.010v0c0-0.003 0-0.007 0-0.010-0-0-0-0.001-0-0.001s0-0.001 0-0.001v0c0-0.003 0-0.006 0-0.010v0c0-0.003 0-0.007 0-0.010v-0.003c0-0.003 0-0.007 0-0.010v0c0-0.003 0-0.006 0-0.010s0 0 0-0.003 0-0.006 0-0.010c0-0.003 0-0.006 0-0.009v-0.030c0-0.003 0-0.006 0-0.010v0c0-0.003 0-0.006 0-0.009v-0.003c0-0.003 0-0.006 0-0.010v-0.003c0-0.003 0-0.005 0-0.008v-0.015c0-0.003 0-0.006 0-0.009v0c0-0.003 0-0.007 0-0.010v-0.003c0-0.003 0-0.005 0-0.008v-0.003c0-0.003 0-0.007 0-0.010v-0.005c0-0.003 0-0.006 0-0.009v-0.014c0-0.003 0-0.006 0-0.009v-0.012s0 0 0-0.002 0-0.006 0-0.009v0c0-0.003 0-0.007 0-0.010 0-0 0-0.001 0-0.001s-0-0.001-0-0.001v0-0.009c0-0.003 0-0.007 0-0.011v0c0-0.003 0-0.007 0-0.010v0c0-0.003 0-0.007 0-0.010s0 0 0-0.002 0-0.007 0-0.010 0-0.007 0-0.011c0-0.007 0-0.014 0-0.021v0c0-0.007 0-0.014 0-0.021v0-0.054c0-0.003 0-0.006 0-0.010v0-0.033c0-0.003 0-0.006 0-0.009v0-0.010c0-0.003 0-0.006 0-0.009v0c0-0.004 0-0.006 0-0.010v-0.081c0-0.006 0-0.015 0-0.021v0c0-0.007 0-0.014 0-0.022v0c0-0.007 0-0.014 0-0.021v0-0.020c0-0.003 0-0.007 0-0.010v0-0.020c0-0.003 0-0.006 0-0.009v0c0-0.004 0-0.006 0-0.010v0-0.020s0 0 0 0v-0.019c0-0.003 0-0.006 0-0.009v0-0.020c0-0.003 0-0.007 0-0.010v0c0-0.003 0-0.006 0-0.009v0c0-0.003 0-0.007 0-0.010v0-0.010c0-0.003 0-0.007 0-0.010v-0.071c0-0.007 0-0.014 0-0.020v-0.013c0-0.003 0-0.007 0-0.010v0c0-0.003 0-0.007 0-0.010v0-0.010c0-0.003 0-0.007 0-0.010v0-0.012c0-0.006 0-0.014-0.002-0.021v0-0.051c0-0.003 0-0.006 0-0.009v0c0-0.004 0-0.006 0-0.010s0-0.006 0-0.009v0c0-0.004 0-0.007 0-0.010v0-0.021l-0.003-0.022c0-0.003 0-0.007 0-0.010v0-0.011l-0.008-0.064v-0.010c0-0.003 0-0.007 0-0.010v0-0.043l-0.003-0.022v-0.097l-0.003-0.021-0.003-0.022c0-0.007 0-0.014-0.003-0.022v0l-0.003-0.021c0-0.007 0-0.014-0.003-0.022v0l-0.006-0.043-0.003-0.021c0-0.004 0-0.007 0-0.011v0-0.011l-0.003-0.022v-0.044s0 0 0 0v-0.011l-0.014-0.088-0.008-0.043c0-0.008-0.003-0.015-0.004-0.022v0l-0.008-0.044c0-0.004 0-0.007 0-0.011l-0.004-0.022v-0.022l-0.004-0.022-0.004-0.022-0.008-0.043-0.004-0.022-0.004-0.022-0.004-0.022-0.013-0.065c-0.008-0.041-0.016-0.081-0.024-0.122v0l-0.009-0.043-0.005-0.022-0.009-0.043q-0.027-0.127-0.056-0.254v0c-0.866-3.644-3.009-6.686-5.919-8.695l-0.049-0.032-0.036-0.025-0.017-0.012-0.033-0.022-0.034-0.022-0.016-0.011-0.016-0.011-0.008-0.006-0.007-0.005h-0.002l-0.008-0.005-0.007-0.005-0.008-0.005-0.007-0.004-0.008-0.005-0.007-0.004-0.014-0.010h-0.002l-0.008-0.005h-0.002l-0.006-0.004-0.008-0.005h-0.002l-0.006-0.004h-0.002l-0.007-0.005h-0.002l-0.007-0.004-0.008-0.005h-0.002l-0.006-0.004h-0.002l-0.007-0.005h-0.003l-0.006-0.003-0.004-0.003-0.006-0.003-0.003-0.002-0.005-0.003-0.009-0.006-0.003-0.002-0.005-0.003-0.004-0.003-0.005-0.003-0.003-0.002-0.006-0.004-0.003-0.002-0.006-0.003h-0.003l-0.006-0.004-0.004-0.003-0.181-0.103-0.003-0.002-0.008-0.005-0.004-0.003-0.005-0.003h-0.003l-0.007-0.004h-0.003l-0.005-0.003h-0.003l-0.010-0.006-0.004-0.003-0.010-0.006-0.008-0.005-0.003-0.002-0.006-0.004-0.004-0.003-0.004-0.002-0.006-0.004-0.004-0.003-0.004-0.003h-0.003l-0.015-0.009-0.004-0.003-0.006-0.003-0.005-0.010-0.004-0.003-0.003-0.002-0.007-0.005h-0.003l-0.005-0.003h-0.003l-0.007-0.005-0.003-0.002-0.004-0.003h-0.003l-0.008-0.005h-0.003l-0.005-0.003h-0.003l-0.008-0.005h-0.003l-0.005-0.003h-0.002l-0.009-0.006-0.017-0.010-0.016-0.010h-0.003l-0.005-0.003c-0.211-0.126-0.465-0.2-0.736-0.2-0.803 0-1.455 0.651-1.455 1.455 0 0.52 0.272 0.976 0.682 1.233l0.006 0.004c3.399 2.073 5.633 5.76 5.633 9.969 0 6.426-5.208 11.635-11.633 11.638h-0c-0.803 0-1.455 0.651-1.455 1.455s0.651 1.455 1.455 1.455v0c8.033 0 14.545-6.512 14.545-14.545v0-0.024c0-0.002 0-0.005 0-0.009z"></path>
<path fill="#961233" style="fill: var(--color30, #961233)" d="M14.847 16.302v0c0.186-0.186 0.443-0.301 0.727-0.301s0.541 0.115 0.727 0.301l10.458 10.458c0.186 0.186 0.301 0.443 0.301 0.727s-0.115 0.541-0.301 0.727v0c-0.186 0.186-0.443 0.301-0.727 0.301s-0.541-0.115-0.727-0.301l-10.458-10.458c-0.186-0.186-0.301-0.443-0.301-0.727s0.115-0.541 0.301-0.727v0z"></path>
<path fill="#ec697e" style="fill: var(--color31, #ec697e)" d="M11.665 4.253c-0.233 0-0.453 0.055-0.647 0.153l0.008-0.004c-0.634 0.315-1.164 0.627-1.672 0.969l0.052-0.033-0.009 0.006-0.043 0.030-0.008 0.006-0.008 0.005-0.008 0.006-0.035 0.024-0.018 0.009-0.008 0.006-0.043 0.030-0.008 0.005-0.007 0.005-0.008 0.005-0.034 0.023-0.015 0.010h-0.002l-0.048 0.034h-0.002l-0.007 0.005h-0.002l-0.007 0.005h-0.002l-0.032 0.022h-0.003l-0.006 0.005h-0.003l-0.006 0.005h-0.003l-0.006 0.005h-0.003l-0.007 0.005-0.024 0.017-0.007 0.005h-0.003l-0.006 0.005h-0.003l-0.007 0.005h-0.002l-0.007 0.005-0.025 0.018-0.006 0.005h-0.003l-0.006 0.004-0.003 0.003-0.006 0.004-0.003 0.003-0.009 0.006-0.022 0.016h-0.003l-0.006 0.004-0.003 0.003-0.006 0.004-0.004 0.003-0.005 0.004-0.004 0.003-0.005 0.004-0.004 0.003-0.005 0.004-0.022 0.044-0.008 0.006-0.005 0.004-0.005 0.003-0.004 0.003-0.005 0.004-0.004 0.003-0.005 0.004-0.009 0.007-0.005 0.004-0.004 0.003-0.008 0.001-0.012 0.009-0.024 0.017-0.005 0.004-0.004 0.003-0.005 0.004-0.011 0.009-0.012 0.009-0.004 0.003-0.005 0.004-0.004 0.003-0.005 0.004-0.004 0.003-0.005 0.004-0.004 0.003-0.003 0.006-0.011 0.009h-0.003l-0.009 0.007-0.014 0.010-0.005 0.004-0.004 0.003-0.005 0.004-0.004 0.003-0.005 0.004-0.004 0.003-0.006 0.005-0.003 0.002-0.009 0.007-0.003 0.002-0.006 0.005-0.004 0.003-0.006 0.004-0.004 0.003-0.005 0.004-0.004 0.003-0.006 0.005-0.003 0.003-0.008 0.006-0.009 0.007-0.008 0.006h-0.003l-0.006 0.005-0.003 0.003-0.006 0.005-0.003 0.003-0.006 0.004-0.004 0.003-0.007 0.005h-0.002l-0.009 0.007-0.016 0.016v0.002l-0.006 0.005-0.003 0.003-0.009 0.008-0.006 0.005-0.003 0.003-0.008 0.006-0.009 0.008-0.009 0.007h-0.003l-0.007 0.006-0.003 0.002-0.007 0.005-0.003 0.002-0.006 0.005-0.003 0.002-0.007 0.006-0.019 0.015h-0.002l-0.007 0.006-0.003 0.003-0.006 0.005-0.003 0.003-0.007 0.006-0.003 0.002-0.008 0.006-0.019 0.016-0.009 0.007-0.007 0.006h-0.002l-0.007 0.006-0.009 0.007-0.036 0.030-0.007 0.006-0.008 0.007-0.044 0.037-0.008 0.007-0.029 0.024-0.008 0.007-0.008 0.006-0.008 0.007-0.028 0.024-0.009 0.007-0.008 0.006-0.008 0.007-0.038 0.033-0.008 0.007-0.008 0.007-0.009 0.008-0.029 0.025-0.009 0.008-0.009 0.007-0.038 0.033-0.009 0.008-0.009 0.008-0.047 0.043-0.009 0.008-0.047 0.043-0.009 0.008-0.046 0.043-0.009 0.008-0.046 0.043-0.010 0.009-0.046 0.043-0.009 0.009q-0.513 0.481-0.979 1.010v0q-0.101 0.114-0.198 0.23v0l-0.057 0.068q-0.049 0.058-0.097 0.117v0l-0.008 0.009-0.032 0.039-0.008 0.009-0.008 0.009-0.032 0.040-0.008 0.009-0.007 0.009-0.031 0.039-0.057 0.055-0.007 0.009-0.007 0.009-0.023 0.030-0.007 0.009-0.007 0.009-0.007 0.009-0.023 0.030-0.007 0.009-0.006 0.009-0.007 0.009-0.023 0.030-0.007 0.009-0.006 0.008-0.006 0.008-0.023 0.030-0.007 0.009-0.006 0.009-0.006 0.008-0.007 0.009-0.022 0.030-0.007 0.009-0.006 0.009-0.007 0.009-0.015 0.020-0.007 0.009-0.018 0.025-0.022 0.030-0.006 0.009-0.006 0.008-0.006 0.009-0.022 0.030-0.006 0.008v0.003l-0.005 0.007v0.003l-0.005 0.007v0.002l-0.006 0.009-0.020 0.029-0.006 0.008v0.002l-0.006 0.008-0.006 0.009-0.015 0.020-0.006 0.009v0.002l-0.006 0.008v0.002l-0.005 0.008v0.003l-0.006 0.009-0.014 0.020-0.005 0.008-0.002 0.003-0.005 0.007v0.003l-0.005 0.007v0.003l-0.006 0.008-0.014 0.020-0.007 0.010v0.002l-0.005 0.008v0.003l-0.005 0.007v0.003l-0.005 0.008v0.002l-0.020 0.030v0.002l-0.005 0.008v0.003l-0.005 0.007v0.003l-0.005 0.008v0.002l-0.006 0.009-0.014 0.020v0.002l-0.005 0.008v0.003l-0.005 0.007v0.003l-0.005 0.008v0.003l-0.006 0.009-0.007 0.010-0.006 0.009v0.003l-0.005 0.007v0.003l-0.005 0.007-0.002 0.003-0.005 0.007v0.003l-0.005 0.007v0.003l-0.013 0.020-0.002 0.003-0.007 0.010-0.004 0.006-0.014 0.021-0.002 0.003-0.006 0.009-0.006 0.009-0.002 0.003-0.007 0.010-0.091 0.059-0.003 0.004-0.004 0.006-0.003 0.004-0.004 0.006-0.008 0.012-0.006 0.010-0.002 0.003-0.007 0.010-0.004 0.006-0.003 0.004-0.004 0.006-0.003 0.004-0.004 0.006-0.003 0.003-0.005 0.007v0.003l-0.009 0.014-0.003 0.006-0.003 0.005-0.003 0.005-0.003 0.005-0.003 0.005-0.003 0.005-0.003 0.005-0.003 0.005-0.003 0.006-0.003 0.004-0.008 0.013-0.006 0.010-0.003 0.005-0.003 0.004-0.003 0.006-0.003 0.005-0.003 0.005-0.003 0.004-0.003 0.005-0.006 0.010-0.004 0.007-0.005 0.008-0.003 0.005-0.003 0.005-0.003 0.004-0.003 0.006-0.003 0.004-0.003 0.006-0.003 0.004-0.004 0.006v0.003l-0.013 0.021-0.003 0.004-0.003 0.006-0.003 0.004-0.004 0.006-0.003 0.004-0.003 0.006-0.003 0.004-0.003 0.006-0.003 0.004-0.003 0.006v0.002l-0.009 0.014v0.003l-0.003 0.006-0.003 0.004-0.003 0.006-0.003 0.004-0.003 0.006-0.003 0.004-0.003 0.006-0.003 0.004-0.003 0.006v0.003l-0.009 0.014-0.004 0.007v0.003l-0.004 0.006-0.002 0.004-0.004 0.006v0.003l-0.004 0.006v0.003l-0.004 0.006-0.014 0.024v0.003l-0.004 0.006v0.003l-0.003 0.006-0.002 0.004-0.004 0.006v0.003l-0.004 0.007-0.015 0.026-0.004 0.008v0.003l-0.029 0.018v0.003l-0.004 0.007v0.003l-0.004 0.008-0.016 0.027-0.009 0.016v0.003l-0.004 0.007v0.003l-0.004 0.007v0.003l-0.020 0.035-0.009 0.016-0.005 0.008-0.021 0.037-0.014 0.026-0.021 0.038-0.005 0.009-0.010 0.017-0.061 0.111-0.010 0.018-0.026 0.048-0.005 0.009-0.005 0.009-0.031 0.057-0.005 0.009-0.031 0.058-0.005 0.009c-0.557 1.046-1.007 2.258-1.289 3.534l-0.018 0.096c-0.006 0.050-0.010 0.109-0.010 0.168 0 0.803 0.651 1.455 1.455 1.455 0.638 0 1.18-0.411 1.376-0.982l0.003-0.010c0.795-3.523 3.090-6.392 6.164-7.948l0.067-0.031c0.484-0.243 0.811-0.736 0.811-1.305 0-0.803-0.651-1.455-1.455-1.455h-0z"></path>
<path fill="#f9d9df" style="fill: var(--color32, #f9d9df)" d="M29.091 17.455c0 6.427-5.21 11.637-11.637 11.637s-11.637-5.21-11.637-11.637c0-6.427 5.21-11.637 11.637-11.637s11.637 5.21 11.637 11.637z"></path>
<path fill="#f1a9b7" style="fill: var(--color33, #f1a9b7)" d="M25.683 25.683l-9.38-9.381c-0.186-0.186-0.443-0.301-0.727-0.301-0.568 0-1.029 0.46-1.029 1.029 0 0.284 0.115 0.541 0.301 0.727l9.248 9.248c0.592-0.412 1.111-0.846 1.589-1.321l-0.001 0.001z"></path>
<path fill="#e7455f" style="fill: var(--color13, #e7455f)" d="M25.928 17.377c0 4.893-3.87 8.859-8.643 8.859s-8.643-3.966-8.643-8.859c0-4.893 3.87-8.859 8.643-8.859s8.643 3.966 8.643 8.859z"></path>
<path fill="#e22241" style="fill: var(--color29, #e22241)" d="M23.626 11.284l-0.008-0.008-0.004-0.003-0.012-0.012-0.013-0.013-0.029-0.029c-0.26-0.253-0.616-0.409-1.008-0.409-0.405 0-0.77 0.166-1.033 0.434l-0 0c-0.259 0.264-0.418 0.625-0.418 1.024 0 0.403 0.163 0.769 0.427 1.033l0.005 0.005 0.038 0.038c1.053 1.053 1.704 2.508 1.704 4.114 0 3.214-2.606 5.82-5.82 5.82-0.819 0-1.598-0.169-2.305-0.474l0.038 0.015-0.027-0.011-0.022-0.010-0.049-0.021c-0.173-0.078-0.374-0.123-0.586-0.123-0.592 0-1.103 0.352-1.333 0.858l-0.004 0.009c-0.079 0.173-0.125 0.376-0.125 0.589 0 0.584 0.346 1.086 0.844 1.315l0.009 0.004 0.014 0.006 0.087 0.038 0.026 0.011 0.031 0.013c0.415 0.182 0.908 0.345 1.418 0.464l0.059 0.011 0.077 0.017 0.077 0.016 0.070 0.014 0.019 0.003 0.036 0.007 0.074 0.014 0.076 0.014h0.064l0.036 0.006 0.018 0.003 0.109 0.016h0.048l0.019 0.003 0.018 0.003h0.018l0.018 0.003 0.054 0.006 2.197-0.002 0.035-0.004h0.162l0.017-0.003h0.041l0.017-0.003h0.191l0.017-0.003h0.003l0.017-0.003h0.003l0.016-0.003h0.175l0.010-0.002h0.047l0.011-0.003h0.003l0.016-0.004h0.003l0.016-0.004h0.003l0.009-0.002h0.027l0.009-0.002h0.008l0.009-0.002h0.105l0.009-0.002h0.008l0.011-0.003h0.008l0.011-0.003h0.003l0.009-0.003h0.008l0.011-0.003h0.008l0.010-0.003h0.007l0.011-0.003h0.008l0.009-0.003h0.010l0.009-0.003h0.030l0.009-0.003h0.010l0.008-0.002h0.011l0.009-0.003h0.157l0.008-0.002h0.011l0.009-0.003h0.010l0.009-0.003h0.008l0.009-0.003h0.011l0.008-0.003h0.011l0.008-0.003h0.010l0.009-0.003h0.012l0.007-0.002h0.011l0.008-0.003h0.011l0.008-0.003h0.008l0.010-0.003h0.003l0.016-0.005h0.003l0.007-0.003h0.012l0.008-0.003h0.011l0.008-0.003h0.011l0.008-0.003h0.011l0.008-0.003h0.011l0.008-0.003h0.010l0.009-0.003h0.011l0.008-0.003h0.011l0.007-0.003h0.012l0.007-0.003h0.011l0.009-0.003h0.011l0.007-0.003h0.010l0.009-0.003h0.008l0.006-0.002h0.013l0.006-0.002h0.008l0.008-0.003h0.011l0.007-0.003h0.012l0.007-0.003h0.011l0.007-0.003h0.012l0.006-0.003h0.013l0.007-0.003h0.012l0.007-0.003h0.012l0.006-0.003h0.012l0.007-0.003h0.013l0.006-0.003h0.013l0.006-0.002h0.008l0.006-0.003h0.013l0.006-0.003h0.012l0.006-0.003h0.013l0.006-0.003h0.013l0.006-0.003h0.008l0.006-0.003h0.013l0.006-0.003h0.013l0.006-0.003h0.012l0.007-0.003h0.011l0.007-0.003h0.012l0.006-0.003h0.012l0.006-0.003h0.012l0.006-0.003h0.012l0.007-0.003h0.008l0.006-0.003 0.005-0.002h0.008l0.006-0.003h0.012l0.006-0.003h0.013l0.006-0.003h0.008l0.006-0.003 0.005-0.002h0.008l0.006-0.003h0.012l0.006-0.003h0.013l0.006-0.003h0.012l0.006-0.003h0.013l0.006-0.003h0.013l0.006-0.003h0.008l0.005-0.003 0.005-0.002h0.008l0.007-0.003h0.003l0.005-0.002h0.004l0.006-0.003h0.012l0.006-0.003h0.012l0.006-0.003h0.012l0.006-0.003h0.012l0.006-0.003h0.013l0.006-0.003h0.008l0.005-0.002 0.006-0.003h0.008l0.010-0.005h0.004l0.004-0.002 0.005-0.003 0.005-0.003h0.003l0.009-0.005 0.005-0.002h0.003l0.005-0.003 0.009-0.004h0.008l0.006-0.003h0.008l0.010-0.005h0.008l0.010-0.005h0.008l0.005-0.003 0.006-0.003h0.008l0.006-0.003 0.004-0.002h0.008l0.006-0.003h0.011l0.006-0.003h0.012l0.006-0.003h0.011l0.006-0.003h0.008l0.004-0.002 0.006-0.003h0.004l0.005-0.003h0.003l0.007-0.003h0.004l0.004-0.002 0.005-0.003 0.005-0.003h0.004l0.004-0.002 0.006-0.003 0.004-0.002h0.004l0.004-0.002 0.006-0.003 0.004-0.002h0.004l0.004-0.003 0.009-0.005h0.004l0.005-0.003 0.004-0.003 0.005-0.003h0.003l0.005-0.003 0.005-0.003h0.008l0.006-0.003h0.004l0.004-0.003h0.003l0.006-0.004h0.003l0.004-0.003h0.003l0.006-0.004h0.003l0.005-0.003h0.003l0.006-0.004h0.003l0.005-0.003h0.003l0.007-0.004h0.003l0.005-0.003h0.003l0.007-0.004h0.003l0.004-0.003h0.003l0.006-0.004h0.003l0.005-0.003 0.004-0.003 0.005-0.003h0.004l0.004-0.002 0.005-0.003 0.005-0.003h0.003l0.005-0.003 0.004-0.002 0.006-0.003h0.003l0.014-0.008h0.003l0.005-0.003 0.004-0.003 0.005-0.003h0.003l0.006-0.003 0.004-0.002 0.005-0.003h0.003l0.006-0.003h0.003l0.005-0.003h0.003l0.007-0.004h0.003l0.005-0.003h0.003l0.007-0.004h0.003l0.005-0.003h0.003l0.007-0.004h0.003l0.005-0.003h0.003l0.007-0.004h0.003l0.005-0.003h0.003l0.007-0.004h0.003l0.005-0.003h0.003l0.007-0.004h0.003l0.005-0.003h0.003l0.007-0.004h0.003l0.005-0.003h0.003l0.007-0.004h0.003l0.005-0.003h0.003l0.006-0.004h0.003l0.005-0.003h0.003l0.006-0.004h0.003l0.005-0.003 0.004-0.003 0.005-0.003h0.003l0.005-0.003 0.003-0.002 0.005-0.003h0.003l0.006-0.004h0.003l0.006-0.003h0.003l0.007-0.004 0.006-0.003h0.003l0.007-0.004h0.002l0.005-0.003h0.003l0.007-0.004h0.003l0.005-0.003h0.003l0.007-0.004h0.003l0.005-0.003h0.003l0.007-0.004h0.002l0.005-0.003h0.003l0.007-0.004h0.003l0.005-0.003h0.003l0.007-0.005h0.002l0.006-0.004 0.007-0.005h0.003l0.006-0.003h0.002l0.007-0.005h0.003l0.006-0.004 0.007-0.005h0.002l0.006-0.004 0.007-0.005h0.003l0.006-0.004 0.006-0.004h0.003l0.013-0.009h0.003l0.006-0.004h0.002l0.006-0.004h0.003l0.007-0.005h0.002l0.006-0.004h0.003l0.013-0.009h0.003l0.013-0.009h0.003l0.007-0.005h0.003l0.005-0.003h0.003l0.007-0.005h0.003l0.006-0.004h0.002l0.007-0.005h0.002l0.013-0.009h0.002l0.013-0.009h0.003l0.005-0.004 0.007-0.005h0.003l0.005-0.004 0.007-0.005h0.003l0.005-0.004h0.002l0.006-0.005h0.003l0.006-0.004h0.002l0.006-0.004h0.003l0.012-0.009h0.003l0.006-0.004h0.003l0.005-0.004h0.003l0.006-0.005h0.003l0.005-0.003h0.003l0.006-0.005h0.003l0.005-0.004h0.003l0.012-0.009h0.003l0.006-0.005h0.002l0.005-0.004h0.003l0.007-0.005h0.002l0.005-0.004h0.003l0.006-0.005h0.003l0.005-0.004h0.003l0.006-0.005h0.003l0.005-0.004h0.003l0.006-0.005h0.003l0.005-0.004h0.002l0.006-0.005h0.003l0.006-0.004 0.007-0.005h0.003l0.006-0.004 0.007-0.005h0.003l0.006-0.004 0.006-0.005h0.003l0.012-0.009h0.003l0.006-0.005 0.006-0.005h0.002l0.007-0.005 0.006-0.005h0.002l0.007-0.005 0.005-0.004h0.003l0.007-0.005 0.006-0.004h0.002l0.007-0.005 0.006-0.004h0.002l0.007-0.005 0.005-0.004h0.002l0.006-0.005h0.003l0.005-0.004 0.007-0.006h0.002l0.006-0.004 0.007-0.006h0.002l0.006-0.004 0.007-0.006 0.006-0.005 0.007-0.006h0.002l0.006-0.005 0.007-0.006 0.006-0.005 0.007-0.006 0.014-0.012 0.007-0.006 0.006-0.005 0.007-0.006 0.006-0.005 0.007-0.006 0.006-0.005 0.007-0.006 0.006-0.005 0.007-0.006 0.006-0.005h0.002l0.007-0.006 0.006-0.005 0.007-0.006 0.006-0.005 0.007-0.006 0.006-0.005 0.007-0.006 0.005-0.005 0.006-0.006 0.005-0.005 0.006-0.006 0.006-0.005 0.006-0.006 0.006-0.005 0.007-0.006h0.002l0.006-0.005 0.019-0.017 0.007-0.006 0.006-0.005 0.006-0.006 0.006-0.005 0.006-0.006 0.006-0.005 0.006-0.006 0.006-0.005 0.006-0.006 0.172-0.887 0.007-0.006 0.006-0.005 0.006-0.006 0.006-0.005 0.007-0.006 0.006-0.006 0.007-0.006 0.006-0.005 0.006-0.006 0.006-0.005 0.006-0.006 0.006-0.006 0.006-0.006 0.006-0.006 0.052-0.049 0.006-0.006 0.007-0.006 0.006-0.006 0.006-0.006 0.006-0.005 0.006-0.006 0.006-0.005 0.048-0.048 0.007-0.006 0.032-0.032c1.579-1.58 2.555-3.761 2.555-6.171s-0.976-4.591-2.555-6.171l0 0z"></path>
<path fill="#961233" style="fill: var(--color30, #961233)" d="M23.626 23.626l-7.323-7.324c-0.186-0.186-0.443-0.301-0.727-0.301-0.568 0-1.029 0.46-1.029 1.029 0 0.284 0.115 0.541 0.301 0.727l7.144 7.144c0.618-0.377 1.154-0.799 1.634-1.275l-0.001 0.001z"></path>
<path fill="#3d068c" style="fill: var(--color34, #3d068c)" d="M23.272 17.455c0 3.213-2.605 5.818-5.818 5.818s-5.818-2.605-5.818-5.818c0-3.213 2.605-5.818 5.818-5.818s5.818 2.605 5.818 5.818z"></path>
<path fill="#2a0075" style="fill: var(--color35, #2a0075)" d="M17.454 11.637h-0.107c-0.782 0.019-1.408 0.658-1.408 1.442 0 0.008 0 0.015 0 0.023v-0.001c0.012 0.799 0.662 1.443 1.463 1.445h0.051c0.129-0.001 0.254-0.018 0.373-0.050l-0.010 0.002c0.097 0.054 0.21 0.1 0.329 0.13l0.010 0.002 0.038 0.010c0.106 0.027 0.227 0.043 0.352 0.043 0.003 0 0.005 0 0.008-0h0.006c0.088 0.085 0.187 0.159 0.295 0.22l0.007 0.004c0.901 0.506 1.499 1.456 1.499 2.545 0 1.607-1.302 2.909-2.909 2.91h-0c-0 0-0.001 0-0.001 0-0.118 0-0.234-0.007-0.349-0.020l0.014 0.001-0.020-0.002-0.019-0.003c-0.26-0.034-0.496-0.097-0.718-0.187l0.019 0.007c-0.156-0.062-0.336-0.098-0.525-0.098-0.803 0-1.455 0.651-1.455 1.455 0 0.604 0.368 1.122 0.892 1.342l0.010 0.004c0.221 0.092 0.49 0.179 0.766 0.246l0.040 0.008h0.004l0.013 0.003h0.008l0.012 0.003h0.007l0.012 0.003h0.075l0.016 0.003 0.022 0.004 0.044 0.009q0.18 0.035 0.364 0.058l0.040 0.004 0.036 0.005q0.21 0.024 0.425 0.033h0.243c3.213 0 5.818-2.605 5.818-5.818v0-1.063l-0.002-0.011v-0.003l-0.002-0.012v-0.013l-0.002-0.012v-0.003l-0.002-0.011v-0.003l-0.003-0.012v-0.016l-0.003-0.012v-0.004l-0.003-0.012v-0.004l-0.003-0.013v-0.004l-0.003-0.013-0.004-0.017-0.003-0.013v-0.004l-0.003-0.012v-0.004l-0.003-0.013-0.004-0.017-0.003-0.013-0.009-0.035-0.009-0.035-0.003-0.013c-0.204-0.773-0.538-1.449-0.982-2.037l0.011 0.015-0.031-0.041-0.037-0.048-0.011-0.014-0.010-0.013-0.022-0.027-0.008-0.010-0.003-0.003-0.008-0.009-0.003-0.003-0.005-0.006-0.005-0.006-0.005-0.006-0.002-0.003-0.007-0.009v-0.003l-0.005-0.006v-0.005l-0.004-0.005v-0.005l-0.003-0.004v-0.005l-0.004-0.005v-0.003l-0.004-0.005v-0.002l-0.003-0.004v-0.003l-0.002-0.003-0.004-0.004v-0.003l-0.002-0.003-0.003-0.003-0.003-0.003-0.003-0.003-0.003-0.004v-0.003l-0.003-0.003v-0.005l-0.003-0.003v-0.002l-0.003-0.003v-0.002l-0.002-0.003-0.003-0.004-0.003-0.003-0.003-0.003-0.003-0.003v-0.002l-0.003-0.004-0.003-0.003-0.002-0.003-0.009-0.009-0.003-0.004-0.003-0.003-0.007-0.008-0.003-0.003-0.003-0.004-0.003-0.003-0.003-0.003-0.003-0.004-0.003-0.003-0.003-0.003-0.007-0.007-0.007-0.008-0.003-0.003-0.003-0.004-0.003-0.003-0.003-0.003-0.004-0.004-0.015-0.015-0.008-0.008-0.003-0.004-0.008-0.008-0.003-0.004-0.008-0.008-0.007-0.007-0.003-0.004-0.008-0.008-0.004-0.004-0.008-0.009-0.004-0.004-0.067-0.067-0.034-0.033c-0.356-0.345-0.757-0.646-1.193-0.892l-0.029-0.015c-0.202-0.115-0.444-0.183-0.701-0.183h-0c-0.168-0.161-0.376-0.282-0.607-0.347l-0.010-0.002-0.048-0.013h-0.019l-0.063-0.016c-0.099-0.024-0.214-0.038-0.331-0.038h-0c-0.001 0-0.002 0-0.003 0-0.124 0-0.244 0.016-0.359 0.045l0.010-0.002c-0.192-0.104-0.419-0.165-0.66-0.168h-0.001z"></path>
<path fill="#190061" style="fill: var(--color36, #190061)" d="M14.847 16.302c-0.186 0.186-0.301 0.443-0.301 0.727s0.115 0.541 0.301 0.727l4.994 4.994c0.669-0.302 1.242-0.699 1.729-1.182l-0 0-5.266-5.267c-0.186-0.187-0.444-0.302-0.728-0.302s-0.542 0.115-0.728 0.302l-0 0z"></path>
<path fill="#f7b236" style="fill: var(--color16, #f7b236)" d="M20.363 17.455c0 1.607-1.302 2.909-2.909 2.909s-2.909-1.302-2.909-2.909c0-1.607 1.302-2.909 2.909-2.909s2.909 1.302 2.909 2.909z"></path>
<path fill="#f57f00" style="fill: var(--color37, #f57f00)" d="M31.004 3.837l-1.441-0.48c-0.223-0.076-0.413-0.196-0.569-0.351v0l-8.205 8.205c0.262 0.263 0.626 0.426 1.027 0.426 0.001 0 0.001 0 0.002 0h3.762c0.402-0 0.765-0.163 1.029-0.426l4.965-4.965c0.263-0.263 0.426-0.627 0.426-1.029 0-0.639-0.412-1.182-0.985-1.377l-0.010-0.003z"></path>
<path fill="#f59004" style="fill: var(--color38, #f59004)" d="M16.301 16.302c-0.186-0.186-0.443-0.301-0.727-0.301s-0.541 0.115-0.727 0.301v0c-0.046 0.054-0.087 0.116-0.121 0.181l-0.003 0.005c-0.072 0.2-0.125 0.433-0.148 0.674l-0.001 0.012c0.027 0.228 0.126 0.428 0.273 0.582l-0-0 2.608 2.608c0.001 0 0.002 0 0.004 0 0.802 0 1.528-0.326 2.053-0.852l0-0z"></path>
<path fill="#f56a0c" style="fill: var(--color39, #f56a0c)" d="M21.818 11.637h1.455l5.084-5.084c0.559-0.557 1.329-0.901 2.181-0.901 0.463 0 0.901 0.102 1.295 0.284l-0.019-0.008c0.116-0.205 0.185-0.449 0.185-0.71 0-0.639-0.412-1.182-0.984-1.377l-0.010-0.003-1.441-0.48c-0.088-0.044-0.164-0.092-0.235-0.146l0.003 0.002c-0.555 0.19-1.029 0.488-1.418 0.873l-6.823 6.823c-0.097 0.097-0.174 0.214-0.226 0.344l-0.002 0.007c0.251 0.23 0.586 0.373 0.955 0.376h0.001z"></path>
<path fill="#5628b4" style="fill: var(--color7, #5628b4)" d="M14.847 15.699l15.398-15.397c0.186-0.186 0.443-0.301 0.727-0.301s0.541 0.115 0.727 0.301v0c0.186 0.186 0.301 0.443 0.301 0.727s-0.115 0.541-0.301 0.727l-15.397 15.397c-0.186 0.186-0.443 0.301-0.727 0.301s-0.541-0.115-0.727-0.301v0c-0.187-0.186-0.302-0.443-0.302-0.728s0.115-0.541 0.301-0.727v0z"></path>
<path fill="#4310ac" style="fill: var(--color40, #4310ac)" d="M19.21 11.336l11.034-11.034c0.186-0.186 0.443-0.301 0.727-0.301s0.541 0.115 0.727 0.301v0c0.186 0.186 0.301 0.443 0.301 0.727s-0.115 0.541-0.301 0.727l-11.032 11.035c-0.186 0.186-0.443 0.301-0.727 0.301s-0.541-0.115-0.727-0.301v0c-0.187-0.186-0.303-0.444-0.303-0.728 0-0.284 0.115-0.54 0.3-0.726l-0 0z"></path>
<path fill="#734ec1" style="fill: var(--color41, #734ec1)" d="M29.391 1.154l0.853-0.853c0.186-0.186 0.443-0.301 0.727-0.301s0.541 0.115 0.727 0.301v0c0.186 0.186 0.301 0.443 0.301 0.727s-0.115 0.541-0.301 0.727l-0.853 0.853c-0.186 0.186-0.443 0.301-0.727 0.301s-0.541-0.115-0.727-0.301v0c-0.186-0.186-0.301-0.443-0.301-0.727s0.115-0.541 0.301-0.727v0z"></path>
<path fill="#f7b236" style="fill: var(--color16, #f7b236)" d="M28.644 2.437l-0.48-1.441c-0.199-0.582-0.741-0.994-1.38-0.994-0.402 0-0.766 0.163-1.029 0.426v0l-4.965 4.965c-0.263 0.263-0.426 0.627-0.426 1.029v0 3.76c0 0.001 0 0.001 0 0.002 0 0.401 0.163 0.764 0.426 1.027l0 0 8.205-8.205c-0.155-0.155-0.276-0.346-0.348-0.558l-0.003-0.010z"></path>
<path fill="#f59004" style="fill: var(--color38, #f59004)" d="M28.995 3.005c-0.155-0.155-0.276-0.346-0.348-0.558l-0.003-0.010-0.48-1.441c-0.199-0.582-0.741-0.994-1.38-0.994-0.402 0-0.766 0.163-1.029 0.427v0l-0.302 0.303c0.559 0.558 0.904 1.33 0.904 2.182s-0.346 1.624-0.904 2.182l-5.089 5.087c0 0.001 0 0.001 0 0.002 0 0.401 0.163 0.764 0.426 1.027l0 0z"></path>
</symbol>
<symbol id="icon-time-line" viewBox="0 0 32 32">
<path fill="#ff805d" style="fill: var(--color27, #ff805d)" d="M16 29.333c-7.364 0-13.333-5.97-13.333-13.333s5.97-13.333 13.333-13.333c7.364 0 13.333 5.97 13.333 13.333v0c0 7.364-5.97 13.333-13.333 13.333v0zM16 26.667c5.891 0 10.667-4.776 10.667-10.667s-4.776-10.667-10.667-10.667c-5.891 0-10.667 4.776-10.667 10.667v0c0 5.891 4.776 10.667 10.667 10.667v0zM17.333 16h5.333v2.667h-8v-9.333h2.667z"></path>
</symbol>
<symbol id="icon-trainers" viewBox="0 0 32 32">
<path fill="#000" style="fill: var(--color2, #000)" d="M8.308 1.846h15.385c4.588 0 8.308 3.719 8.308 8.308v11.692c0 4.588-3.719 8.308-8.308 8.308h-15.385c-4.588 0-8.308-3.719-8.308-8.308v-11.692c0-4.588 3.719-8.308 8.308-8.308z"></path>
<path fill="#fff" style="fill: var(--color3, #fff)" d="M22.779 9.846h-10.472c-0.311 0-0.563 0.252-0.563 0.563v4.007c-1.104 0.264-1.912 1.243-1.912 2.41 0 0.712 0.3 1.353 0.781 1.805l0.001 0.001c-1.018 0.596-1.691 1.684-1.692 2.929v0c0 0 0 0 0 0 0 0.311 0.252 0.563 0.563 0.563 0 0 0 0 0 0h5.642c0.311 0 0.563-0.252 0.563-0.563v0c0-0.002 0-0.004 0-0.006 0-0.764-0.254-1.468-0.683-2.033l0.006 0.008h7.764c0 0 0 0 0 0 0.311 0 0.563-0.252 0.563-0.563 0-0 0-0 0-0v0-8.558c0-0 0-0 0-0 0-0.311-0.252-0.563-0.563-0.563-0 0-0 0-0 0h0zM12.308 15.479c0.745 0 1.35 0.604 1.35 1.35s-0.604 1.35-1.35 1.35c-0.745 0-1.35-0.604-1.35-1.35v0c0.001-0.745 0.604-1.349 1.349-1.35h0zM10.121 20.999c0.259-0.982 1.14-1.695 2.187-1.695s1.927 0.712 2.183 1.679l0.004 0.016zM22.215 18.406h-8c0.354-0.425 0.569-0.977 0.569-1.578 0-1.168-0.809-2.146-1.896-2.407l-0.017-0.003v-3.444h9.345z"></path>
</symbol>
</defs>
</svg>
